<?xml version="1.0" encoding="UTF-8"?>
<svg width="129px" height="246px" viewBox="0 0 129 246" version="1.1" xmlns="http://www.w3.org/2000/svg" xmlns:xlink="http://www.w3.org/1999/xlink">
    <!-- Generator: Sketch 48.1 (47250) - http://www.bohemiancoding.com/sketch -->
    <title>Group 5</title>
    <desc>Created with Sketch.</desc>
    <defs></defs>
    <g id="Desktop-HD" stroke="none" stroke-width="1" fill="none" fill-rule="evenodd" transform="translate(-1311.000000, -1622.000000)">
        <g id="Group-5" transform="translate(1311.000000, 1622.000000)" fill="#E4F400">
            <polygon id="Fill-1" points="39.0076 211.6368 116.6466 112.9498 120.5166 124.1468 42.8776 222.8338"></polygon>
            <polygon id="Fill-2" points="23.4034 166.4586 101.0424 67.7716 104.9124 78.9686 27.2734 177.6556"></polygon>
            <polygon id="Fill-3" points="7.7991 121.2804 85.4381 22.5934 89.3081 33.7904 11.6691 132.4774"></polygon>
            <polygon id="Fill-4" points="46.8054 234.2161 50.6754 245.4131 128.3144 146.7261 124.4444 135.5281"></polygon>
            <polygon id="Fill-5" points="31.2086 189.0438 108.8476 90.3568 112.7116 101.5618 35.0726 200.2488"></polygon>
            <polygon id="Fill-6" points="15.6043 143.8657 93.2433 45.1787 97.1073 56.3837 19.4683 155.0707"></polygon>
            <polygon id="Fill-7" points="77.6394 0.0001 0.0004 98.6881 3.8704 109.8851 81.5094 11.1971"></polygon>
        </g>
    </g>
</svg>