<svg width="782" height="451" xmlns="http://www.w3.org/2000/svg" xmlns:xlink="http://www.w3.org/1999/xlink"><defs><path id="a" d="M256.252.018H0v271.91h256.252V36.047h-40.688V.018h40.689v36.029z"/><path id="c" d="M0 .245v109.819h197.7V.244z"/></defs><g fill="none" fill-rule="evenodd"><path stroke="#979797" fill="#0063F7" d="M562.654 1L497 162.441l182-46.195z"/><path d="M618.33 306.044H221.66c-5.577 0-10.1-4.236-10.1-9.46V68.702c0-5.224 4.523-9.46 10.1-9.46h396.67c5.576 0 10.098 4.236 10.098 9.46v227.884c0 5.223-4.522 9.46-10.099 9.46z" fill="#FEFEFE"/><path fill="#FEFEFE" d="M224.853 253.032H616.56V72.525H224.853z"/><path fill="#97E0F1" d="M227.068 249.57h385.648V74.74H227.068z"/><path fill="#59CCE5" d="M227.068 249.57h240.99L559 74.74H227.068z"/><g fill="#E4F400"><path d="M117.42 239.275l85.996-109.244 4.287 12.395-85.997 109.243zM100.135 189.264L186.132 80.02l4.287 12.394-85.997 109.244zM82.851 139.253L168.848 30.01l4.286 12.395-85.996 109.243zM126.056 264.27l4.287 12.394L216.34 167.42l-4.287-12.396zM108.78 214.265l85.997-109.243 4.28 12.403-85.996 109.243zM91.497 164.254l85.996-109.243 4.28 12.404-85.996 109.243zM160.21 5L74.213 114.244 78.5 126.64l85.996-109.244z"/></g><path fill="#FEFEFE" d="M366.15 306.095h105.546l24.884 76.846H337.833z"/><path d="M430.066 276.897c0 4.662-4.034 8.44-9.01 8.44-4.977 0-9.01-3.778-9.01-8.44 0-4.661 4.033-8.44 9.01-8.44 4.976 0 9.01 3.779 9.01 8.44" fill="#231F20"/><path d="M222.474 62.703c-3.898 0-7.069 2.97-7.069 6.621V297.21c0 3.65 3.171 6.621 7.07 6.621h396.667c3.898 0 7.07-2.972 7.07-6.621V69.324c0-3.65-3.172-6.621-7.07-6.621H222.474zm396.668 246.803H222.474c-7.239 0-13.128-5.517-13.128-12.297V69.324c0-6.78 5.89-12.297 13.128-12.297h396.668c7.239 0 13.128 5.517 13.128 12.297V297.21c0 6.78-5.89 12.297-13.128 12.297z" fill="#8B8B8B"/><path d="M48.779 147.972l27.378-17.376s-4.838-13.055-8.876-13.955c-7.915-1.762-25.614 9.472-27.378 17.378-.9 4.034 8.876 13.953 8.876 13.953l-5.498-15.39" fill="#E01F26"/><path d="M73.717 129.793l-24.63 15.634c-4.28-4.584-7.572-9.516-7.247-10.976.686-3.067 4.908-7.516 10.51-11.071 5.602-3.556 11.43-5.486 14.498-4.801 1.462.326 4.535 5.398 6.87 11.214zM48.49 150.506l30.087-19.095-.557-1.504c-4.837-13.052-9.11-14.935-10.306-15.2-4.22-.94-10.759 1.05-17.493 5.323-6.733 4.275-11.315 9.343-12.256 13.558-.267 1.194-.374 5.857 9.398 15.777l1.127 1.141z" fill="#231F20"/><g transform="matrix(-1 0 0 1 392.108 83.796)"><path d="M252.45 258.688c17.143-40.473 34.573-61.745 37.315-65.239 27.708-35.297 35.513-57.87 35.513-57.87 6.7-17.008 14.315-67.588 14.315-67.588l-12.301-7.809-12.303-7.807s-42.606 28.37-55.173 41.655c0 0-17.143 16.645-37.362 56.696-2 3.965-13.876 28.762-43.274 61.457-20.632 22.944-29.657 44.377-19.963 55.491 5.136 5.888 18.665 2.968 29.497 10.365 14.472 9.883 14.47 19.921 21.924 22.272 14.072 4.438 29.781-13.22 41.812-41.623" fill="#75564A"/><path d="M190.079 240.975c34.634-38.517 48.623-67.731 50.981-72.4 23.82-47.184 75.602-115.138 75.602-115.138s-44.758 27.004-57.326 40.29c0 0-17.142 16.645-37.361 56.696-2.002 3.964-13.877 28.762-43.275 61.456-20.632 22.945-29.657 44.379-19.962 55.492 2.058 2.359 5.476 3.301 9.516 4.063 4.82-9.457 12.257-19.818 21.825-30.459" fill="#4C2E1F"/><path d="M252.69 168.296c23.82-47.183 70.447-110.75 70.447-110.75l-6.475-4.11s-38.99 37.9-45.134 44.394c0 0-17.142 16.645-37.361 56.696-2.002 3.965-13.876 28.763-43.275 61.458-20.632 22.943-29.656 44.377-19.961 55.49 2.058 2.36 5.475 3.302 9.515 4.064 4.82-9.457 10.24-28.454 19.808-39.095 34.634-38.518 50.079-63.477 52.437-68.147z" fill="#4C2E1F"/><path d="M252.358 258.63c17.143-40.472 34.573-61.744 37.315-65.238 27.708-35.297 35.513-57.871 35.513-57.871 6.701-17.008 14.316-67.588 14.316-67.588L327.2 60.125l-12.302-7.808s-42.606 28.37-55.173 41.655c0 0-17.144 16.646-37.363 56.696-2 3.965-13.875 28.763-43.274 61.458-20.631 22.944-29.657 44.377-19.962 55.49 5.136 5.888 18.664 2.968 29.497 10.366 14.471 9.883 14.469 19.92 21.923 22.272 14.072 4.437 29.781-13.22 41.812-41.623z" stroke="#422920" stroke-width="3"/><path fill="#E01F26" d="M291.613 191.183l-68.019-43.172 27.981-43.989 68.019 43.172z"/><path fill="#B01F24" d="M253.698 167.118l-28.834-18.302 27.981-43.988 28.833 18.3z"/><path fill="#6E0E12" d="M237.452 152.106l-10.458-6.638 25.85-40.64 10.459 6.638z"/><path fill="#231F20" d="M314.216 143.781l-11.017-6.993 2.13-3.349 11.017 6.993z"/><path fill="#3A251D" d="M242.569 155.353l-15.168-9.628 25.85-40.64 44.923 28.513 2.13-3.348-48.275-30.64-30.11 47.337 18.52 11.755z"/><path fill="#231F20" d="M311.804 155.742l-19.737 31.028-42.898-27.227-2.13 3.349 46.25 29.355 21.867-34.378z"/><path fill="#FEFEFE" d="M335.272 90.13l-38.304-24.313 18.021-13.442 25.852 16.408z"/><path stroke="#3A251D" stroke-width="3" d="M335.272 90.13l-38.304-24.313 18.021-13.442 25.852 16.408z"/><path fill="#FEFEFE" d="M300.513 163.057l-49.663-31.52 3.723-5.852 49.663 31.52zM271.775 158.57l-27.156-17.236 3.721-5.852 27.158 17.237z"/><mask id="b" fill="#fff"><use xlink:href="#a"/></mask><path d="M103.595 100.356a13.222 13.222 0 0 1-2.51-3.891c-2.824-6.774.384-14.552 7.165-17.373 6.78-2.821 14.568.384 17.391 7.157.52 1.246.832 2.525.958 3.803.075-7.518 4.55-14.627 11.938-17.7a19.423 19.423 0 0 1 4.374-1.226c-.057-.127-.124-.244-.178-.372-4.118-9.877.56-21.218 10.447-25.331 9.887-4.113 21.24.559 25.358 10.435 9.886-4.113 21.24.56 25.357 10.436 4.118 9.875-.56 21.217-10.446 25.33-9.887 4.113-21.24-.56-25.358-10.436a19.369 19.369 0 0 1-4.374 1.226c.055.127.124.245.177.373 4.119 9.876-.558 21.217-10.446 25.33a19.331 19.331 0 0 1-13.259.594c.211 7.777-4.293 15.241-11.914 18.412-9.888 4.113-21.24-.56-25.358-10.436-2.29-5.49-1.852-11.43.678-16.331" fill="#FEFEFE" mask="url(#b)"/><path d="M101.126 100.673a15.139 15.139 0 0 1-1.974-3.403c-3.264-7.829.455-16.85 8.292-20.11 6.774-2.817 14.44-.423 18.503 5.333 2.359-6.1 7.39-10.998 14.146-12.889a21.307 21.307 0 0 1-.332-11.291l3.929 1.616a17.304 17.304 0 0 0 1.012 10.088c.044.088.086.175.127.266l1.09 2.475-2.673.433c-1.387.225-2.7.593-3.903 1.093a17.267 17.267 0 0 0-10.65 15.788l-4.179.185a11.172 11.172 0 0 0-.806-3.203c-2.375-5.697-8.95-8.403-14.653-6.03-5.704 2.373-8.411 8.939-6.036 14.637a11.134 11.134 0 0 0 2.117 3.276l.993 1.076-.671 1.302a17.233 17.233 0 0 0-.607 14.569c3.666 8.795 13.813 12.97 22.617 9.307 6.65-2.766 10.821-9.212 10.627-16.423l-.08-2.932 2.801.878a17.33 17.33 0 0 0 11.827-.529c8.805-3.663 12.985-13.798 9.288-22.652a7.874 7.874 0 0 1-.133-.275l-1.09-2.477 2.673-.432a17.422 17.422 0 0 0 3.905-1.092l1.935-.805.805 1.932c3.666 8.795 13.813 12.97 22.618 9.308 8.805-3.663 12.985-13.8 9.318-22.594-3.667-8.795-13.813-12.971-22.619-9.308l-1.933.804-.806-1.93c-3.666-8.797-13.813-12.972-22.618-9.31a17.169 17.169 0 0 0-4.918 3.131l-2.91-2.264c2.036-2.21 3.264-3.501 6.217-4.73 10.315-4.29 22.111.077 27.242 9.752 10.464-3.257 21.917 1.943 26.213 12.246 4.555 10.925-.637 23.516-11.575 28.066-10.317 4.292-22.116-.08-27.246-9.757-.156.048-.314.094-.473.138 3.213 10.434-1.991 21.831-12.282 26.113a21.524 21.524 0 0 1-12.07 1.303c-.784 7.756-5.805 14.667-13.104 17.703-10.938 4.55-23.543-.637-28.098-11.562a21.398 21.398 0 0 1 .144-16.82" fill="#231F20" mask="url(#b)"/><path fill="#F5BF3A" mask="url(#b)" d="M250.004 219.678l-73.493 30.574-75.374-137.158 104.438-43.448z"/><path fill="#C76815" mask="url(#b)" d="M145.087 148.778l-21.8-45.208-3.775 1.818 21.701 45.002zM206.738 152.723L180.961 80.01l-3.95 1.397 25.853 72.929z"/><path fill="#231F20" mask="url(#b)" d="M205.917 162.948l6.003 16.933 3.95-1.397-6.079-17.148z"/><path fill="#D67927" mask="url(#b)" d="M250.004 219.678l-9.192 3.885-43.693-150.365 8.478-3.5z"/><path d="M178.564 247.18l70.02-29.13-43.235-145.995-100.13 41.656 73.345 133.469zm75.106-26.711l-76.967 32.019-77.404-140.849L208.044 66.4l45.626 154.07z" fill="#CC7325" mask="url(#b)"/><path d="M175.89 232.715a6.61 6.61 0 0 0-.5-2.27 6.68 6.68 0 0 0-8.733-3.594 6.67 6.67 0 0 0-2.58 10.41 9.748 9.748 0 0 0-10.539-2.01c-.721.3-1.379.684-1.985 1.124-.026-.065-.043-.13-.07-.196-2.068-4.959-7.77-7.306-12.734-5.24-4.964 2.065-7.313 7.761-5.245 12.72-4.966 2.066-7.314 7.761-5.247 12.72 2.068 4.96 7.77 7.306 12.734 5.24 4.966-2.064 7.314-7.76 5.247-12.72.72-.299 1.379-.683 1.984-1.123.025.065.043.13.07.194 2.068 4.96 7.769 7.307 12.735 5.241a9.692 9.692 0 0 0 4.901-4.51c2.7 2.826 6.958 3.862 10.784 2.27 4.965-2.066 7.314-7.761 5.246-12.72a9.708 9.708 0 0 0-6.067-5.536" fill="#FEFEFE" mask="url(#b)"/><path d="M175.89 232.715a6.61 6.61 0 0 0-.5-2.27 6.68 6.68 0 0 0-8.733-3.594 6.67 6.67 0 0 0-2.58 10.41 9.748 9.748 0 0 0-10.539-2.01c-.721.3-1.379.684-1.985 1.124-.026-.065-.043-.13-.07-.196-2.068-4.959-7.77-7.306-12.734-5.24-4.964 2.065-7.313 7.761-5.245 12.72-4.966 2.066-7.314 7.761-5.247 12.72 2.068 4.96 7.77 7.306 12.734 5.24 4.966-2.064 7.314-7.76 5.247-12.72.72-.299 1.379-.683 1.984-1.123.025.065.043.13.07.194 2.068 4.96 7.769 7.307 12.735 5.241a9.692 9.692 0 0 0 4.901-4.51c2.7 2.826 6.958 3.862 10.784 2.27 4.965-2.066 7.314-7.761 5.246-12.72a9.708 9.708 0 0 0-6.067-5.536z" stroke="#231F20" stroke-width="3" mask="url(#b)"/></g><path stroke="#8B8B8B" stroke-width="4" d="M366.15 306.095h105.546l24.884 76.846H337.833z"/><path fill="#8B8B8B" d="M311.25 385.589h208.496v-5.328H311.249z"/><path fill="#231F20" d="M0 391.125h51.884v-5.329H0zM80.858 391.125h654.084v-5.329H80.858z"/><path fill="#F60000" d="M699.924 59L632 80.726l34.119 28.154z"/><g><path fill="#FAFFB3" d="M488.007 443.732l243.84-16.479-9.07-118.41-243.84 16.478z"/><path fill="#F5FF60" d="M616.218 436.482l113.164-7.648-9.07-118.41-113.163 7.647z"/><path fill="#8D5F26" d="M596.751 359.708l27.035-1.826-.954-12.446-27.034 1.827zM554.913 381.113l70.289-4.75-.955-12.446-70.287 4.75zM517.355 408.025l109.703-7.415-1.401-18.303-109.703 7.413zM639.057 353.855c7.287-15.498 24.055-13.614 30.875 5.61 3.822-19.943 20.13-24.063 29.703-9.704 11.47 17.206-19.033 36.914-26.98 45.254-9.135-7.186-42.329-22.588-33.598-41.16M535.98 382.393l12.52-.846-.953-12.447-12.52.847zM502.758 366.06l85.883-5.804-.953-12.445-85.883 5.804z"/><path fill="#C2A585" d="M531.184 438.675L729.42 425.28l-8.744-114.156-38.47 2.6-.327-4.255 43.001-2.906 9.395 122.666L531.51 442.93zM664.112 310.669l.326 4.254-183.072 12.373 8.742 114.155 28.109-1.9.327 4.256-32.638 2.205-9.395-122.665z"/><path d="M690.292 448.912l-108.439-24.94M661.617 338.431l-25.055 96.13" stroke="#231F20" stroke-width="3"/><path fill="#FEFEFE" d="M660.605 338.198l113.837-60.268-185.158-42.583z"/><g transform="matrix(-1 0 0 1 781.32 231.33)"><mask id="d" fill="#fff"><use xlink:href="#c"/></mask><path fill="#4F4F4F" mask="url(#d)" d="M64.755 30.82l1.215 4.66L186.373 7.79l-66.491 95.885L13.758 47.488l31.075-7.147-1.214-4.66-43.62 10.031 121.549 64.352L197.7.244z"/></g><path fill="#1FB0E5" d="M661.65 335.86l90.318-48.786-146.575-32.466z"/><path d="M582.067 184.078l72.985 113.014" stroke="#4F4F4F" stroke-width="3"/><path fill="#439FB9" d="M701.985 275.579l49.983 11.495-90.318 48.786z"/><path fill="#72CFEE" d="M691.188 273.498l33.97 7.642-63.509 54.72z"/></g></g></svg>