<svg width="244" height="59" xmlns="http://www.w3.org/2000/svg"><path d="M18.163 58.815c-6.695.247-17.526-3.79-17.92-12.11-.394-11.077 23.68-19.2 31.41-19.447-3.398-.098-11.275-2.658-11.471-7.68C19.837 10.225 39.332.822 49.523.822c4.825 0 10.043 3.396 10.24 7.827.099 2.806-6.45 8.468-11.766 10.782-.197.098-.69-.05-.443-.296 3.84-3.692 8.664-10.092 8.566-13.046-.05-1.624-.837-2.757-3.988-2.757-9.895 0-27.175 10.831-27.175 18.462 0 1.575 2.56 3.84 10.043 4.578 1.674-.344 7.434-2.264 10.142-2.264.738 0 1.378.098 1.378.541.05 1.231-2.018 4.579-5.218 4.579-3.004 0-5.514-.886-7.188-1.034C17.03 32.23 4.87 42.324 4.87 50.298c0 2.708 2.412 4.973 7.434 4.973 16.098 0 35.938-16.246 47.557-26.88.738-.69.59.344.295.64-9.945 10.535-28.8 29.292-41.994 29.784zm48.59-32.837c-1.722 1.428-12.504 17.674-10.387 18.905.246.148.443.295 1.379-.05.984-.393 2.609-1.575 4.529-3.347 5.415-5.021 13.095-14.474 13.932-20.628.099-.787-.148-1.526-.69-2.215 2.02.443 4.284 4.234 4.235 5.908-.099 3.446-9.453 13.144-16.296 18.707-3.741 3.102-5.661 4.087-6.449 4.037-1.97-.049-4.677-2.806-4.726-5.169-.05-1.87 1.723-6.203 6.892-14.77 2.068-3.396 3.939-5.76 2.413-6.35-.148 0 .344-.394 1.821.542 1.23.738 3.397 3.397 3.397 4.184 0 .148 0 .197-.05.246zm20.333-1.23c3.446-2.216 6.696-3.693 9.206-3.693 3.003 0 5.711 3.053 5.711 5.563 0 2.462-12.21 10.585-21.218 10.634-1.871 2.61-2.56 4.923-2.659 5.957-.05.739.492 1.034 1.28 1.034 2.61 0 7.188-2.314 10.19-3.938 4.432-2.363 9.946-5.81 14.524-9.6.197-.148.69.246.492.443-6.744 7.187-19.397 16.295-24.32 16.295-2.363 0-6.4-3.79-6.449-6.203-.05-1.772.886-3.938 2.363-6.154 2.51-3.741 6.99-7.828 10.88-10.338zm11.52-1.083c-3.938 0-11.815 6.547-16.788 12.307 3.939-.787 9.059-3.889 12.456-6.4 3.594-2.658 4.972-4.775 4.972-5.366 0-.443-.295-.541-.64-.541zm29.932 2.757c-2.412 2.855-4.135 4.578-7.236 8.861-2.757 3.79-4.973 7.237-5.022 8.27 0 .149.05.247.246.247 1.083 0 9.256-6.695 15.902-13.095.344-.345.689.049.443.393-1.083 1.379-3.693 4.431-6.646 7.484-3.2 3.249-9.01 8.861-10.585 8.861-1.87 0-4.48-3.25-4.332-5.12 0-.148.049-.345.098-.492.345-.985 2.265-4.234 6.4-9.945 2.314-3.2 6.154-7.828 6.154-7.975 0-.099-.098-.099-.098-.099-.345 0-5.76 2.56-11.767 8.271-4.726 4.48-13.046 12.8-12.603 14.326.05.099.099.197.197.197.443.148-.098.492-.64.394-.541-.098-2.855-3.052-2.609-4.53.492-2.756 7.335-11.027 11.225-16.984 1.23-1.92 1.92-3.79 1.033-4.234-.049 0 .394-.394 1.625.64.985.837 2.61 3.2 2.56 3.89 0 .984-5.366 7.483-9.305 12.996 2.167-2.609 4.973-5.464 7.484-7.926 2.067-2.018 11.076-9.846 13.243-9.846.64 0 1.23.492 1.772 1.034 1.083 1.132 2.61 3.495 2.56 4.086 0 .099-.05.197-.099.296zm11.816.886c-.296.394-10.388 14.178-10.388 16.246 0 .148.05.246.246.246 1.034 0 9.354-6.745 15.902-13.095.344-.345.738 0 .492.344-1.083 1.428-3.446 4.136-6.695 7.533-3.25 3.396-9.108 8.861-10.585 8.861-.69 0-1.428-.394-2.166-1.034-1.182-1.034-2.166-2.412-2.117-3.347 0-.247.099-.542.197-.788.985-2.61 5.268-9.108 9.502-14.966l7.926-11.176c-3.003.886-5.12 1.773-5.613 2.265-.59.64.837 1.575 1.674 2.018.197.099.05.247-.098.247-2.314-.197-3.988-1.428-4.136-1.92-.787-2.265 1.822-4.136 2.61-4.431 2.461-1.034 5.12-1.526 8.024-1.773 1.083-1.624 1.97-3.052 2.61-4.233 1.083-2.019 1.526-3.643.64-4.087-.05 0 .393-.393 1.624.64.985.837 3.052 3.791 3.003 4.48 0 .099-.05.197-.098.296l-1.97 2.757h.444c6.153 0 15.803.935 18.215 2.117.148.049 0 .147-.05.147-3.544-.393-8.713-.246-14.227-.049-1.92.05-4.086.197-6.302.492l-8.664 12.21zm9.01 4.578c0 .788 3.1 1.526 3.84 1.822 7.531-2.61 13.291-3.348 16.59-3.84.394-.05.295.344.05.443-2.709.886-7.533 1.772-14.08 4.48 2.264.984 4.184 2.117 4.184 3.544 0 1.182-.443 2.511-2.659 4.333-3.741 2.855-9.6 5.366-14.129 5.366-2.757 0-5.957-3.299-5.514-5.022.492-1.821 4.677-4.923 9.6-6.941 1.477-.64 2.954-1.182 4.332-1.773-2.806-.984-5.809-1.969-5.809-4.233 0-4.087 9.896-9.305 15.508-9.305 2.954 0 5.317 2.905 5.268 4.283-.05 2.314-5.071 3.988-6.4 4.332-.296.099-.443-.197-.296-.344.886-.886 4.677-3.939 4.579-5.022 0-.197-.197-.443-.837-.443-4.923 0-14.228 6.006-14.228 8.32zm6.694 5.022c.345-.788-.541-1.133-1.673-1.526a74.985 74.985 0 0 0-5.416 2.56c-5.957 3.101-9.157 6.301-9.157 7.286 0 .147.197.147.394.147 2.117 0 7.532-2.658 11.47-4.972 2.167-1.23 4.038-2.61 4.382-3.495zm38.105-10.486s-.935.984-2.068 2.412c-4.381 5.366-9.944 13.686-9.993 14.72 0 .148.049.246.246.246 1.034 0 9.354-6.745 15.901-13.095.345-.345.739 0 .493.344-1.084 1.428-3.447 4.136-6.696 7.533-3.25 3.396-9.108 8.861-10.584 8.861-1.871 0-4.234-3.25-4.234-5.12 0-1.575 3.938-6.843 6.4-10.24-5.711 6.154-14.179 13.785-17.034 15.262-.148.049-.197.049-.246.049-.936 0-1.92-.64-2.806-1.625-1.182-1.329-2.068-2.806-2.068-4.184 0-1.822 5.858-9.354 11.077-16.197.787-1.034 1.624-2.363 1.821-3.151.148-.69-.295-.985-.787-1.083.098-.05.984-.394 2.166.69 2.067 1.87 2.363 3.938 2.314 4.627 0 .098-.05.197-.099.295 0 0-3.495 3.939-5.366 6.252-3.84 4.776-6.597 9.157-6.597 10.142 0 .197.099.492.394.492 1.674 0 18.412-13.44 22.105-18.067.787-.985 1.821-2.462 1.723-3.742 0-.394-.148-.64-.443-.788-.05 0 .935-.197 2.116.887 1.871 1.723 2.413 3.495 2.364 4.184 0 .099-.05.197-.099.296zm11.815 4.233c-5.218 4.382-9.009 9.108-11.027 12.85-.936 1.723-1.231 2.855-1.083 3.101.344.296-.099.492-.64.394-.542-.098-3.2-3.052-2.708-4.53.295-.885.935-2.018 1.87-3.445l2.56-3.791c2.02-2.954 5.465-7.877 6.696-9.748 1.23-1.92 1.92-3.79 1.034-4.234-.05 0 .394-.394 1.625.64.984.837 2.707 3.2 2.658 3.89 0 .59-2.117 3.347-4.628 6.695a61.46 61.46 0 0 1 3.988-4.037c2.806-2.51 8.615-7.483 10.93-7.975 1.033-.197 2.707 1.969 2.56 4.332-.05.64-.296 2.166-.985 2.806.049-.492-.148-1.034-.443-1.477-.394-.541-1.428-1.034-2.757-.886-3.003.345-6.056 2.363-9.65 5.415zm19.545-5.907c3.446-2.216 6.695-3.693 9.206-3.693 3.003 0 5.711 3.053 5.711 5.563 0 2.462-12.21 10.585-21.218 10.634-1.871 2.61-2.56 4.923-2.659 5.957-.05.739.492 1.034 1.28 1.034 2.61 0 7.188-2.314 10.19-3.938 4.432-2.363 9.945-5.81 14.524-9.6.197-.148.69.246.492.443-6.744 7.187-19.397 16.295-24.32 16.295-2.363 0-6.4-3.79-6.449-6.203-.05-1.772.886-3.938 2.363-6.154 2.51-3.741 6.99-7.828 10.88-10.338zm11.52-1.083c-3.938 0-11.815 6.547-16.788 12.307 3.939-.787 9.059-3.889 12.456-6.4 3.594-2.658 4.972-4.775 4.972-5.366 0-.443-.295-.541-.64-.541z" fill="#004BBB" fill-rule="evenodd"/></svg>