<?xml version="1.0" encoding="UTF-8"?>
<svg width="782px" height="451px" viewBox="0 0 782 451" version="1.1" xmlns="http://www.w3.org/2000/svg" xmlns:xlink="http://www.w3.org/1999/xlink">
    <!-- Generator: Sketch 48.1 (47250) - http://www.bohemiancoding.com/sketch -->
    <title>Group 7</title>
    <desc>Created with Sketch.</desc>
    <defs>
        <polygon id="path-1" points="256.252361 0.0183063079 0 0.0183063079 0 271.927789 256.252361 271.927789 256.252361 36.0468706 215.564328 36.0468706 215.564328 0.0182109407 256.252546 0.0182109407 256.252546 36.0468706"></polygon>
        <polygon id="path-3" points="3.17319539e-20 0.244904816 3.17319539e-20 110.063875 197.700857 110.063875 197.700857 0.244904816"></polygon>
    </defs>
    <g id="Desktop-HD" stroke="none" stroke-width="1" fill="none" fill-rule="evenodd" transform="translate(-577.000000, -378.000000)">
        <g id="hero" transform="translate(-13.000000, -338.000000)">
            <g id="Group-7" transform="translate(590.000000, 717.000000)">
                <polygon id="Page-1" stroke="#979797" fill="#0063F7" points="562.653745 0 497 161.441021 679 115.246484"></polygon>
                <path d="M618.329476,305.04412 L221.659832,305.04412 C216.083205,305.04412 211.560907,300.808274 211.560907,295.584883 L211.560907,67.7005298 C211.560907,62.4771395 216.083205,58.2412935 221.659832,58.2412935 L618.329476,58.2412935 C623.906103,58.2412935 628.428402,62.4771395 628.428402,67.7005298 L628.428402,295.584883 C628.428402,300.808274 623.906103,305.04412 618.329476,305.04412 Z" id="Fill-1" fill="#FEFEFE"></path>
                <polygon id="Fill-5" fill="#FEFEFE" points="224.852691 252.031698 616.559723 252.031698 616.559723 71.5248756 224.852691 71.5248756"></polygon>
                <polygon id="Fill-7" fill="#97E0F1" points="227.067989 248.570087 612.715665 248.570087 612.715665 73.738806 227.067989 73.738806"></polygon>
                <polygon id="Fill-7" fill="#59CCE5" points="227.067989 248.570087 468.058263 248.570087 559 73.738806 227.067989 73.738806"></polygon>
                <g id="Group-5" transform="translate(74.212465, 4.000000)" fill="#E4F400">
                    <polygon id="Fill-1" points="43.2067184 234.274567 129.203458 125.031495 133.490058 137.426184 47.493319 246.669256"></polygon>
                    <polygon id="Fill-2" points="25.9227462 184.263873 111.919486 75.020801 116.206086 87.41549 30.2093467 196.658562"></polygon>
                    <polygon id="Fill-3" points="8.63866317 134.253179 94.6354025 25.010107 98.9220031 37.404796 12.9252637 146.647868"></polygon>
                    <polygon id="Fill-4" points="51.8439416 259.269066 56.1305422 271.663755 142.127282 162.420683 137.840681 150.024887"></polygon>
                    <polygon id="Fill-5" points="34.568166 209.264903 120.564905 100.021831 124.84486 112.425376 38.8481207 221.668448"></polygon>
                    <polygon id="Fill-6" points="17.284083 159.25432 103.280822 50.0112475 107.560777 62.4147923 21.5640377 171.657864"></polygon>
                    <polygon id="Fill-7" points="85.9971824 0.000110696517 0.00044305949 109.24429 4.28704363 121.638979 90.283783 12.3947998"></polygon>
                </g>
                <polygon id="Fill-9" fill="#FEFEFE" points="366.150249 305.094527 471.696141 305.094527 496.579894 381.941363 337.832861 381.941363"></polygon>
                <path d="M430.065849,275.897242 C430.065849,280.558754 426.032338,284.336773 421.055587,284.336773 C416.078837,284.336773 412.045326,280.558754 412.045326,275.897242 C412.045326,271.23573 416.078837,267.457711 421.055587,267.457711 C426.032338,267.457711 430.065849,271.23573 430.065849,275.897242" id="Fill-8" fill="#231F20"></path>
                <path d="M222.474212,61.702905 C218.576027,61.702905 215.404964,64.6731052 215.404964,68.3243704 L215.404964,296.208724 C215.404964,299.858097 218.576027,302.830189 222.474212,302.830189 L619.141836,302.830189 C623.040022,302.830189 626.211084,299.858097 626.211084,296.208724 L626.211084,68.3243704 C626.211084,64.6731052 623.040022,61.702905 619.141836,61.702905 L222.474212,61.702905 Z M619.141836,308.505731 L222.474212,308.505731 C215.235303,308.505731 209.345609,302.989105 209.345609,296.208724 L209.345609,68.3243704 C209.345609,61.5439898 215.235303,56.0273632 222.474212,56.0273632 L619.141836,56.0273632 C626.380746,56.0273632 632.27044,61.5439898 632.27044,68.3243704 L632.27044,296.208724 C632.27044,302.989105 626.380746,308.505731 619.141836,308.505731 L619.141836,308.505731 Z" id="Fill-3" fill="#8B8B8B"></path>
                <g id="Group-4" transform="translate(214.607649, 233.594527) scale(-1, 1) translate(-214.607649, -233.594527) translate(37.107649, 82.594527)">
                    <path d="M343.328991,64.3778489 L315.951035,47.0011222 C315.951035,47.0011222 320.788489,33.9462058 324.826337,33.0469334 C332.741669,31.2848456 350.440292,42.5180173 352.204293,50.4247649 C353.104542,54.4582336 343.328991,64.3778489 343.328991,64.3778489 L348.826913,48.9874243" id="Fill-3" fill="#E01F26"></path>
                    <path d="M318.390444,46.1986265 L343.021204,61.8320463 C347.301256,57.2484085 350.592583,52.3167722 350.267431,50.8562831 C349.581738,47.789477 345.359196,43.3406195 339.757526,39.7855107 C334.155855,36.2292971 328.32857,34.2992862 325.25954,34.9842357 C323.797466,35.3101391 320.725118,40.3820796 318.390444,46.1986265 Z M343.61842,66.9117202 L313.531976,47.8159911 L314.088272,46.3124165 C318.925727,33.2608144 323.199143,31.3772033 324.394682,31.1120616 C328.613907,30.1719131 335.153428,32.1615809 341.887598,36.4358867 C348.620662,40.7101925 353.20264,45.7788188 354.143809,49.9934677 C354.410345,51.1877103 354.517623,55.8508906 344.74539,65.7705059 L343.61842,66.9117202 Z" id="Fill-37" fill="#231F20"></path>
                    <g id="Group-3" transform="translate(0.000000, 0.201034)">
                        <path d="M252.44955,258.68822 C269.592983,218.215438 287.02286,196.943337 289.764526,193.44899 C317.473163,158.151996 325.277899,135.578491 325.277899,135.578491 C331.97889,118.570753 339.593402,67.9905473 339.593402,67.9905473 L327.291846,60.1821231 L314.989185,52.3748036 C314.989185,52.3748036 272.383312,80.7449697 259.816327,94.0296756 C259.816327,94.0296756 242.672893,110.675053 222.453794,150.725818 C220.453119,154.690791 208.578462,179.488172 179.179923,212.183463 C158.548303,235.127062 149.522591,256.560457 159.217406,267.674315 C164.353469,273.561566 177.88153,270.641693 188.714375,278.039147 C203.185818,287.922306 203.183606,297.96013 210.637754,300.311054 C224.709946,304.748863 240.418953,287.091528 252.44955,258.68822" id="Fill-5" fill="#75564A"></path>
                        <path d="M190.078905,240.975426 C224.713042,202.458064 238.702288,173.243864 241.060187,168.574055 C264.880281,121.390977 316.662276,53.4373591 316.662276,53.4373591 C316.662276,53.4373591 271.904211,80.4409405 259.33612,93.7267512 C259.33612,93.7267512 242.193793,110.372129 221.974694,150.422893 C219.972912,154.386762 208.098256,179.185248 178.699717,211.879434 C158.068096,234.824137 149.04349,256.257533 158.738306,267.371391 C160.796491,269.730047 164.213897,270.672405 168.253957,271.433583 C173.073716,261.976861 180.511274,251.616447 190.078905,240.975426" id="Fill-9" fill="#4C2E1F"></path>
                        <path d="M252.690648,168.295877 C276.509636,121.1128 323.136767,57.5461723 323.136767,57.5461723 L316.662497,53.4364753 C316.662497,53.4364753 277.671996,91.3362774 271.528407,97.8300405 C271.528407,97.8300405 254.38608,114.475418 234.166981,154.526182 C232.165199,158.491156 220.290543,183.288537 190.892004,215.983828 C170.260383,238.927427 161.235777,260.360822 170.930593,271.47468 C172.988778,273.834441 176.406184,274.775695 180.446244,275.537977 C185.266003,266.081255 190.686296,247.083849 200.253927,236.442828 C234.888064,197.925466 250.332749,172.965686 252.690648,168.295877 Z" id="Fill-11" fill="#4C2E1F"></path>
                        <path d="M252.357866,258.630772 C269.501299,218.15799 286.931176,196.88589 289.672842,193.391542 C317.381479,158.094548 325.186215,135.521044 325.186215,135.521044 C331.887207,118.513306 339.501718,67.9330999 339.501718,67.9330999 L327.200162,60.1246757 L314.897501,52.3173562 C314.897501,52.3173562 272.291628,80.6875223 259.724643,93.9722282 C259.724643,93.9722282 242.581209,110.617606 222.36211,150.66837 C220.361435,154.633344 208.486778,179.430725 179.08824,212.126016 C158.456619,235.069614 149.430907,256.50301 159.125723,267.616868 C164.261785,273.504119 177.789846,270.584246 188.622692,277.9817 C203.094134,287.864858 203.091922,297.902683 210.54607,300.253606 C224.618262,304.691416 240.32727,287.034081 252.357866,258.630772 Z" id="Stroke-13" stroke="#422920" stroke-width="3"></path>
                        <polygon id="Fill-15" fill="#E01F26" points="291.612801 191.183022 223.594257 148.011319 251.574959 104.022094 319.593503 147.193798"></polygon>
                        <polygon id="Fill-17" fill="#B01F24" points="253.697732 167.117764 224.864337 148.816355 252.84504 104.828236 281.678435 123.12854"></polygon>
                        <polygon id="Fill-19" fill="#6E0E12" points="237.452004 152.105659 226.994078 145.468278 252.844708 104.827573 263.302634 111.466059"></polygon>
                        <polygon id="Fill-21" fill="#231F20" points="314.216342 143.780982 303.198802 136.787869 305.328875 133.439349 316.346415 140.432463"></polygon>
                        <polygon id="Fill-23" fill="#3A251D" points="242.568712 155.353314 227.400517 145.725355 253.251147 105.085755 298.173999 133.598435 300.304071 130.249915 252.029065 99.609473 221.91829 146.947216 240.438639 158.701833"></polygon>
                        <polygon id="Fill-25" fill="#231F20" points="311.803698 155.741526 292.066796 186.769738 249.16895 159.542996 247.038878 162.891515 293.288878 192.247124 315.155852 157.869288"></polygon>
                        <polygon id="Fill-27" fill="#FEFEFE" points="335.272319 90.1298825 296.967511 65.8174898 314.989074 52.3748036 340.84081 68.7826582"></polygon>
                        <polygon id="Stroke-29" stroke="#3A251D" stroke-width="3" points="335.272319 90.1298825 296.967511 65.8174898 314.989074 52.3748036 340.84081 68.7826582"></polygon>
                        <polygon id="Fill-31" fill="#FEFEFE" points="300.513318 163.057449 250.850336 131.536516 254.572986 125.684616 304.235968 157.20555"></polygon>
                        <polygon id="Fill-33" fill="#FEFEFE" points="271.775478 158.570809 244.618713 141.334387 248.340257 135.482488 275.498128 152.71891"></polygon>
                        <mask id="mask-2" fill="white">
                            <use xlink:href="#path-1"></use>
                        </mask>
                        <g id="Clip-38"></g>
                        <path d="M103.595088,100.355626 C102.566548,99.2420308 101.702796,97.9450458 101.085672,96.4646711 C98.2610587,89.6914044 101.469439,81.9128086 108.250059,79.0923634 C115.030679,76.2708133 122.81772,79.4757141 125.641227,86.2489808 C126.161026,87.495147 126.472906,88.7744559 126.598985,90.0515552 C126.67419,82.5336822 131.148891,75.4245693 138.536681,72.3511346 C139.972213,71.7545657 141.439817,71.3634817 142.91074,71.1259588 C142.854336,70.9989118 142.786872,70.8818075 142.73268,70.7536557 C138.615204,60.8771259 143.292295,49.535688 153.179547,45.4226767 C163.066799,41.3096655 174.419444,45.9816839 178.538026,55.8582137 C188.424172,51.7452025 199.777923,56.4172209 203.8954,66.2937506 C208.012876,76.1691757 203.335786,87.5106136 193.448533,91.6236248 C183.562387,95.736636 172.208636,91.0646176 168.09116,81.1880879 C166.655628,81.7857615 165.188024,82.1768456 163.717101,82.4143684 C163.772399,82.5414155 163.840969,82.6585197 163.894055,82.7866716 C168.012637,92.6632014 163.335546,104.003535 153.448294,108.117651 C149.063176,109.941605 144.391615,110.029985 140.18898,108.710905 C140.400218,116.488396 135.895657,123.952136 128.27451,127.122789 C118.387257,131.235801 107.034613,126.563782 102.917136,116.687252 C100.627806,111.197714 101.064659,105.257434 103.595088,100.355626" id="Fill-40" fill="#FEFEFE" mask="url(#mask-2)"></path>
                        <path d="M101.125708,100.673354 C100.317253,99.6205206 99.6558912,98.4804111 99.151575,97.2695972 C95.887897,89.4412873 99.6072291,80.4209444 107.444038,77.1608058 C114.218022,74.34257 121.884513,76.736579 125.946692,82.493469 C128.305698,76.3929995 133.3378,71.4945059 140.092983,69.6042662 C138.932835,65.8381488 138.884173,61.9494032 139.761196,58.3125424 L143.689554,59.9288022 C143.035934,63.1988837 143.315741,66.6965451 144.701504,70.0174454 C144.745743,70.1047212 144.787769,70.1919971 144.828689,70.2825872 L145.919163,72.7583482 L143.246066,73.191413 C141.859196,73.4156787 140.545319,73.7835629 139.343145,74.2840179 C132.942974,76.9464829 128.763564,83.1430663 128.693888,90.0721037 L124.514478,90.2565982 C124.406094,89.1540505 124.134029,88.0769121 123.708236,87.0539069 C121.332641,81.3566738 114.758835,78.6511233 109.055417,81.0241419 C103.350892,83.3971604 100.64351,89.9627328 103.019105,95.6610706 C103.51568,96.851999 104.227916,97.9545467 105.135906,98.9366759 L106.129055,100.012709 L105.45774,101.315218 C103.108688,105.864609 102.887496,111.175177 104.850569,115.883652 C108.516816,124.678625 118.663968,128.853502 127.468488,125.191232 C134.118606,122.42492 138.289168,115.978661 138.09452,108.767911 L138.014891,105.835885 L140.816279,106.714167 C144.697081,107.931609 148.895292,107.743801 152.643379,106.184988 C161.4479,102.521613 165.628416,92.3865702 161.931203,83.5330456 C161.885858,83.4424555 161.840514,83.3507606 161.798488,83.257961 L160.708015,80.7810953 L163.381112,80.3491352 C164.771299,80.1237647 166.08407,79.7569853 167.286245,79.2565303 L169.220563,78.452267 L170.025699,80.3844874 C173.691945,89.1794599 183.839097,93.3543375 192.643618,89.6920672 C201.449245,86.0286922 205.628655,75.8925445 201.962409,67.097572 C198.295056,58.3025996 188.14901,54.1266172 179.343384,57.7899922 L177.410172,58.5942555 L176.603929,56.6631398 C172.937683,47.8670626 162.790531,43.692185 153.98601,47.3544553 C152.124685,48.1288901 150.484552,49.2060284 149.067821,50.4853373 L146.158049,48.2205849 C148.194115,46.0110704 149.421727,44.7196092 152.374632,43.4911192 C162.689889,39.200242 174.486022,43.5684522 179.616555,53.2428114 C190.081117,49.985987 201.534403,55.1860794 205.829939,65.4890455 C210.385374,76.4139899 205.192908,89.0049082 194.254997,93.5554033 C183.937528,97.8473852 172.139182,93.4758608 167.00865,83.7981873 C166.85271,83.8456919 166.694558,83.8920917 166.536406,83.936282 C169.74921,94.3696094 164.544578,105.76739 154.253652,110.049429 C150.432572,111.639175 146.231042,112.081078 142.183241,111.351938 C141.400224,119.108438 136.379181,126.018695 129.079867,129.054568 C118.141956,133.605063 105.537369,128.418228 100.981933,117.493283 C98.7246758,112.077763 98.7910332,106.023694 101.125708,100.673354" id="Fill-42" fill="#231F20" mask="url(#mask-2)"></path>
                        <polygon id="Fill-44" fill="#F5BF3A" mask="url(#mask-2)" points="250.00428 219.677915 176.51125 250.252072 101.136988 113.09425 205.574684 69.6463575"></polygon>
                        <polygon id="Fill-48" fill="#C76815" mask="url(#mask-2)" points="145.087373 148.778241 123.286756 103.57047 119.512126 105.387795 141.213207 150.390082"></polygon>
                        <polygon id="Fill-50" fill="#C76815" mask="url(#mask-2)" points="206.738372 152.723108 180.960735 80.0090909 177.010258 81.4055041 202.864206 154.334949"></polygon>
                        <polygon id="Fill-52" fill="#231F20" mask="url(#mask-2)" points="205.917088 162.947636 211.920221 179.881356 215.870698 178.483838 209.791254 161.335796"></polygon>
                        <polygon id="Fill-54" fill="#D67927" mask="url(#mask-2)" points="250.00428 219.677915 240.811568 223.563347 197.11854 73.198152 205.596803 69.6982811"></polygon>
                        <path d="M178.564016,247.179632 L248.583236,218.050498 L205.34918,72.0546178 L105.219185,113.710595 L178.564016,247.179632 Z M253.66953,220.468811 L176.702691,252.48799 L99.298999,111.639175 L208.044396,66.3993654 L253.66953,220.468811 Z" id="Fill-56" fill="#CC7325" mask="url(#mask-2)"></path>
                        <path d="M175.890587,232.714714 C175.857408,231.954641 175.700363,231.187939 175.389589,230.444438 C173.971752,227.04289 170.062196,225.434364 166.656955,226.850662 C163.251715,228.266961 161.640336,232.173383 163.058172,235.57493 C163.319178,236.200223 163.665343,236.764754 164.076759,237.26079 C161.367165,234.628153 157.247476,233.706786 153.538098,235.250132 C152.817014,235.550626 152.15897,235.935081 151.552906,236.374775 C151.527469,236.309594 151.509773,236.244413 151.48323,236.179233 C149.415092,231.219977 143.713885,228.873473 138.749246,230.939369 C133.784607,233.00416 131.435555,238.700289 133.503694,243.659544 C128.537948,245.72544 126.190003,251.420464 128.257035,256.379719 C130.325174,261.338974 136.026381,263.685478 140.99102,261.619582 C145.956765,259.554791 148.304711,253.859768 146.237678,248.899407 C146.958762,248.600018 147.616806,248.215563 148.221764,247.775869 C148.247201,247.84105 148.264897,247.906231 148.292546,247.970307 C150.359579,252.930667 156.060785,255.277171 161.02653,253.211275 C163.22849,252.295431 164.911756,250.663705 165.92813,248.700551 C168.628876,251.52652 172.885703,252.562783 176.712313,250.970827 C181.676952,248.904931 184.026004,243.209908 181.957865,238.250652 C180.808776,235.493178 178.534929,233.547701 175.890587,232.714714" id="Fill-58" fill="#FEFEFE" mask="url(#mask-2)"></path>
                        <path d="M175.890587,232.714714 C175.857408,231.954641 175.700363,231.187939 175.389589,230.444438 C173.971752,227.04289 170.062196,225.434364 166.656955,226.850662 C163.251715,228.266961 161.640336,232.173383 163.058172,235.57493 C163.319178,236.200223 163.665343,236.764754 164.076759,237.26079 C161.367165,234.628153 157.247476,233.706786 153.538098,235.250132 C152.817014,235.550626 152.15897,235.935081 151.552906,236.374775 C151.527469,236.309594 151.509773,236.244413 151.48323,236.179233 C149.415092,231.219977 143.713885,228.873473 138.749246,230.939369 C133.784607,233.00416 131.435555,238.700289 133.503694,243.659544 C128.537948,245.72544 126.190003,251.420464 128.257035,256.379719 C130.325174,261.338974 136.026381,263.685478 140.99102,261.619582 C145.956765,259.554791 148.304711,253.859768 146.237678,248.899407 C146.958762,248.600018 147.616806,248.215563 148.221764,247.775869 C148.247201,247.84105 148.264897,247.906231 148.292546,247.970307 C150.359579,252.930667 156.060785,255.277171 161.02653,253.211275 C163.22849,252.295431 164.911756,250.663705 165.92813,248.700551 C168.628876,251.52652 172.885703,252.562783 176.712313,250.970827 C181.676952,248.904931 184.026004,243.209908 181.957865,238.250652 C180.808776,235.493178 178.534929,233.547701 175.890587,232.714714 Z" id="Stroke-60" stroke="#231F20" stroke-width="3" mask="url(#mask-2)"></path>
                    </g>
                </g>
                <polygon id="Stroke-10" stroke="#8B8B8B" stroke-width="4" points="366.150249 305.094527 471.696141 305.094527 496.579894 381.941363 337.832861 381.941363"></polygon>
                <polygon id="Fill-11" fill="#8B8B8B" points="311.249292 384.588636 519.745653 384.588636 519.745653 379.261194 311.249292 379.261194"></polygon>
                <polygon id="Fill-35" fill="#231F20" points="0 390.125354 51.8842407 390.125354 51.8842407 384.79602 0 384.79602"></polygon>
                <polygon id="Fill-36" fill="#231F20" points="80.8583569 390.125354 734.942097 390.125354 734.942097 384.79602 80.8583569 384.79602"></polygon>
                <polygon id="Page-1" fill="#F60000" points="699.923969 58 632 79.7263259 666.118752 107.88021"></polygon>
                <g id="Page-1" transform="translate(628.820499, 315.221393) scale(-1, 1) translate(-628.820499, -315.221393) translate(476.320499, 182.221393)">
                    <polygon id="Fill-3" fill="#FAFFB3" points="293.313181 260.510873 49.4734179 244.031759 58.5428499 125.620775 302.382613 142.099889"></polygon>
                    <polygon id="Fill-5" fill="#F5FF60" points="165.102179 253.260392 51.9385661 245.613028 61.0079981 127.202044 174.171611 134.849409"></polygon>
                    <polygon id="Fill-7" fill="#8D5F26" points="184.569439 176.486746 157.534407 174.660133 158.488529 162.214745 185.52239 164.041359"></polygon>
                    <polygon id="Fill-9" fill="#8D5F26" points="226.407886 197.891669 156.11891 193.140934 157.073033 180.695546 227.360838 185.446282"></polygon>
                    <polygon id="Fill-11" fill="#8D5F26" points="263.965309 224.803156 154.262293 217.38893 155.663624 199.085402 265.36664 206.498528"></polygon>
                    <path d="M142.263295,170.633884 C134.976843,155.135709 118.208872,157.019508 111.388359,176.243491 C107.566016,156.300299 91.2581303,152.180796 81.6852962,166.539674 C70.2147535,183.745694 100.718577,203.453549 108.665305,211.793729 C117.800297,204.607142 150.994394,189.205741 142.263295,170.633884" id="Fill-13" fill="#8D5F26"></path>
                    <polygon id="Fill-15" fill="#8D5F26" points="245.340252 199.171179 232.82076 198.325504 233.773712 185.879017 246.293204 186.725791"></polygon>
                    <polygon id="Fill-17" fill="#8D5F26" points="278.56233 182.838986 192.679597 177.034731 193.632549 164.589343 279.515282 170.393598"></polygon>
                    <polygon id="Fill-19" fill="#C2A585" points="250.136152 255.453759 51.9011036 242.057124 60.6450803 127.902008 99.115534 130.501716 99.44216 126.246948 56.4410878 123.340422 47.0462005 246.006173 249.810697 259.708526"></polygon>
                    <polygon id="Fill-21" fill="#C2A585" points="117.208272 127.447279 116.882817 131.702046 299.954927 144.074853 291.212121 258.22997 263.103555 256.329675 262.776929 260.585543 295.414943 262.790456 304.80983 140.125804"></polygon>
                    <path d="M91.0287897,265.690164 L199.467447,240.751002" id="Stroke-23" stroke="#231F20" stroke-width="3"></path>
                    <path d="M119.703156,155.209609 L144.758531,251.340523" id="Stroke-25" stroke="#231F20" stroke-width="3"></path>
                    <polygon id="Fill-27" fill="#FEFEFE" points="120.715463 154.976801 6.87869648 94.7084424 192.036998 52.1255763"></polygon>
                    <g id="Group-31" transform="translate(0.000000, 48.107796)">
                        <mask id="mask-4" fill="white">
                            <use xlink:href="#path-3"></use>
                        </mask>
                        <g id="Clip-30"></g>
                        <polygon id="Fill-29" fill="#4F4F4F" mask="url(#mask-4)" points="64.7547143 30.8200669 65.9699034 35.4806265 186.37314 7.78999662 119.881923 103.674576 13.7577442 47.4883305 44.8328704 40.3413328 43.6188519 35.6807732 -0.00035121074 45.7123032 121.547832 110.063875 197.700857 0.244904816"></polygon>
                    </g>
                    <polygon id="Fill-32" fill="#1FB0E5" points="119.670728 152.639154 29.3522034 103.852839 175.927664 71.3861799"></polygon>
                    <path d="M199.253208,0.856122135 L126.268105,113.870842" id="Stroke-34" stroke="#4F4F4F" stroke-width="3"></path>
                    <polygon id="Fill-36" fill="#439FB9" points="79.3355793 92.3572682 29.3524376 103.852509 119.670962 152.638824"></polygon>
                    <polygon id="Fill-38" fill="#72CFEE" points="90.1321487 90.276842 56.1618752 97.918708 119.671313 152.639044"></polygon>
                </g>
            </g>
        </g>
    </g>
</svg>