<?xml version="1.0" encoding="UTF-8"?>
<svg width="244px" height="59px" viewBox="0 0 244 59" version="1.1" xmlns="http://www.w3.org/2000/svg" xmlns:xlink="http://www.w3.org/1999/xlink">
    <!-- Generator: Sketch 48.1 (47250) - http://www.bohemiancoding.com/sketch -->
    <title>Eventsure</title>
    <desc>Created with Sketch.</desc>
    <defs></defs>
    <g id="Desktop-HD" stroke="none" stroke-width="1" fill="none" fill-rule="evenodd" transform="translate(-127.000000, -47.000000)">
        <path d="M145.163072,105.815381 C138.46769,106.061535 127.636924,102.024613 127.243078,93.7046155 C126.849232,82.6276957 150.923071,74.5046213 158.652299,74.2584675 C155.255377,74.160006 147.378456,71.6000068 147.181533,66.5784698 C146.836918,57.2246265 166.332297,47.8215524 176.523063,47.8215524 C181.347677,47.8215524 186.566137,51.2184744 186.76306,55.6492423 C186.861521,58.4553953 180.313831,64.1169321 174.996909,66.4307775 C174.799986,66.5292391 174.307679,66.3815468 174.553833,66.135393 C178.393832,62.4430864 183.218445,56.0430884 183.119984,53.0892431 C183.070753,51.4646282 182.283061,50.3323209 179.132293,50.3323209 C169.236911,50.3323209 151.956916,61.1630868 151.956916,68.7938538 C151.956916,70.3692379 154.516916,72.6338526 161.99999,73.3723139 C163.673836,73.0276986 169.433834,71.1076992 172.141526,71.1076992 C172.879987,71.1076992 173.519987,71.2061607 173.519987,71.6492375 C173.569218,72.8800064 171.501526,76.2276977 168.301527,76.2276977 C165.298451,76.2276977 162.787682,75.3415441 161.113837,75.1938518 C144.030765,79.2307737 131.870769,89.3230783 131.870769,97.2984605 C131.870769,100.006152 134.283076,102.270767 139.304613,102.270767 C155.403069,102.270767 175.243063,86.0246178 186.861521,75.3907748 C187.599983,74.7015443 187.45229,75.7353901 187.156906,76.0307747 C177.212293,86.5661561 158.356915,105.323074 145.163072,105.815381 Z M193.753843,72.9784679 C192.030767,74.4061598 181.249232,90.6523087 183.366154,91.8830776 C183.612308,92.0307698 183.809231,92.1784621 184.744615,91.8338468 C185.72923,91.4400008 187.353845,90.2584627 189.273845,88.4861555 C194.689228,83.4646186 202.369225,74.0123137 203.206148,67.8584694 C203.30461,67.0707774 203.058456,66.332316 202.516918,65.6430855 C204.535379,66.0861623 206.799993,69.8769304 206.750762,71.550776 C206.652301,74.9969288 197.298458,84.6953874 190.455383,90.2584627 C186.713845,93.3600002 184.793846,94.3446153 184.006154,94.2953845 C182.036924,94.2461538 179.329232,91.4892315 179.280002,89.1261553 C179.230771,87.2553867 181.003078,82.9230803 186.172307,74.356929 C188.239999,70.960007 190.110767,68.5969307 188.584614,68.0061617 C188.436922,68.0061617 188.929229,67.6123157 190.406152,68.5477 C191.636921,69.2861613 193.803074,71.944622 193.803074,72.7323141 C193.803074,72.8800064 193.803074,72.9292371 193.753843,72.9784679 Z M214.086152,71.747699 C217.532305,69.5323151 220.781534,68.0553924 223.292303,68.0553924 C226.295379,68.0553924 229.00307,71.1076992 229.00307,73.6184677 C229.00307,76.0800054 216.793843,84.2030799 207.784615,84.2523106 C205.913846,86.8615406 205.224616,89.1753861 205.126154,90.2092319 C205.076924,90.9476932 205.618462,91.2430778 206.406154,91.2430778 C209.015384,91.2430778 213.593844,88.9292323 216.59692,87.3046174 C221.027688,84.9415412 226.541533,81.4953884 231.119993,77.7046203 C231.316916,77.556928 231.809223,77.9507741 231.6123,78.1476971 C224.867687,85.3353872 212.215383,94.4430768 207.292308,94.4430768 C204.929231,94.4430768 200.89231,90.6523087 200.843079,88.2400017 C200.793848,86.4676946 201.729232,84.3015414 203.206155,82.0861574 C205.716923,78.3446201 210.196922,74.2584675 214.086152,71.747699 Z M225.606148,70.6646224 C221.667688,70.6646224 213.790767,77.2123128 208.818461,82.972311 C212.756921,82.1846189 217.87692,79.0830814 221.273842,76.572313 C224.867687,73.9138522 226.246148,71.7969298 226.246148,71.2061607 C226.246148,70.7630839 225.950764,70.6646224 225.606148,70.6646224 Z M255.538454,73.4215447 C253.126147,76.2769284 251.403071,78.0000048 248.301533,82.2830805 C245.544611,86.0738485 243.329227,89.5200014 243.279996,90.5538472 C243.279996,90.7015395 243.329227,90.800001 243.52615,90.800001 C244.609227,90.800001 252.781532,84.1046184 259.427684,77.7046203 C259.772299,77.360005 260.116914,77.7538511 259.870761,78.0984663 C258.787684,79.4769275 256.178454,82.5292342 253.224609,85.581541 C250.02461,88.8307708 244.215381,94.4430768 242.639997,94.4430768 C240.769228,94.4430768 238.159998,91.193847 238.30769,89.3230783 C238.30769,89.1753861 238.356921,88.9784631 238.406152,88.8307708 C238.750767,87.8461557 240.670766,84.5969259 244.80615,78.8861584 C247.119995,75.6861594 250.959994,71.0584685 250.959994,70.9107762 C250.959994,70.8123147 250.861532,70.8123147 250.861532,70.8123147 C250.516917,70.8123147 245.101534,73.3723139 239.095382,79.0830814 C234.36923,83.5630801 226.049232,91.8830776 226.492309,93.4092309 C226.54154,93.5076925 226.590771,93.606154 226.689232,93.606154 C227.132309,93.7538462 226.590771,94.0984615 226.049232,94 C225.507694,93.9015385 223.193849,90.9476932 223.440002,89.4707706 C223.93231,86.7138484 230.775385,78.4430816 234.664614,72.4861603 C235.895383,70.5661609 236.584614,68.6953923 235.69846,68.2523155 C235.649229,68.2523155 236.092306,67.8584694 237.323075,68.8923153 C238.30769,69.7292381 239.932305,72.0923143 239.883074,72.7815449 C239.883074,73.76616 234.516922,80.2646195 230.578462,85.778464 C232.744615,83.169234 235.550768,80.3138503 238.061536,77.8523126 C240.129228,75.8338516 249.138456,68.0061617 251.304609,68.0061617 C251.944609,68.0061617 252.535378,68.4984692 253.076916,69.0400075 C254.159993,70.1723149 255.686146,72.5353911 255.636916,73.1261601 C255.636916,73.2246217 255.587685,73.3230832 255.538454,73.4215447 Z M267.353844,74.3076982 C267.058459,74.7015443 256.966155,88.4861555 256.966155,90.5538472 C256.966155,90.7015395 257.015385,90.800001 257.212308,90.800001 C258.246154,90.800001 266.566152,84.0553876 273.113842,77.7046203 C273.458457,77.360005 273.852303,77.7046203 273.60615,78.0492356 C272.523073,79.4769275 270.159997,82.1846189 266.910767,85.581541 C263.661537,88.9784631 257.803077,94.4430768 256.326155,94.4430768 C255.636924,94.4430768 254.898463,94.0492308 254.160002,93.4092309 C252.978463,92.3753851 251.993848,90.996924 252.043079,90.0615396 C252.043079,89.8153859 252.141541,89.5200014 252.240002,89.2738476 C253.224617,86.6646176 257.507693,80.166158 261.741538,74.3076982 L269.667689,63.132317 C266.664613,64.0184706 264.547691,64.9046242 264.055383,65.3969317 C263.464614,66.0369315 264.892306,66.9723158 265.729229,67.4153926 C265.926152,67.5138541 265.77846,67.6615464 265.630767,67.6615464 C263.316922,67.4646234 261.643076,66.2338545 261.495384,65.741547 C260.707692,63.4769323 263.316922,61.6061636 264.104614,61.3107791 C266.566152,60.2769333 269.224612,59.7846257 272.129227,59.5384719 C273.212304,57.913857 274.098457,56.4861652 274.738457,55.3046271 C275.821533,53.2861661 276.26461,51.6615512 275.378457,51.2184744 C275.329226,51.2184744 275.772303,50.8246284 277.003072,51.8584743 C277.987687,52.6953971 280.055378,55.6492423 280.006148,56.3384729 C280.006148,56.4369344 279.956917,56.5353959 279.907686,56.6338574 L277.938456,59.3907797 L278.381533,59.3907797 C284.535377,59.3907797 294.184605,60.326164 296.596912,61.5077021 C296.744604,61.5569329 296.596912,61.6553944 296.547681,61.6553944 C293.003067,61.2615483 287.833838,61.4092406 282.319993,61.6061636 C280.399994,61.6553944 278.23384,61.8030866 276.018457,62.0984712 L267.353844,74.3076982 Z M276.363076,78.8861584 C276.363076,79.6738505 279.464613,80.4123118 280.203075,80.7076963 C287.73538,78.0984663 293.495378,77.360005 296.793839,76.8676975 C297.187685,76.8184667 297.089224,77.2123128 296.84307,77.3107743 C294.135378,78.1969278 289.310764,79.0830814 282.763074,81.7907729 C285.027689,82.775388 286.947688,83.9076954 286.947688,85.3353872 C286.947688,86.5169253 286.504611,87.8461557 284.289227,89.6676936 C280.54769,92.5230774 274.68923,95.0338458 270.160001,95.0338458 C267.403079,95.0338458 264.20308,91.7353853 264.646156,90.0123089 C265.138464,88.190771 269.323078,85.0892335 274.246153,83.0707725 C275.723076,82.4307727 277.199999,81.8892344 278.57846,81.2984654 C275.772307,80.3138503 272.769231,79.3292352 272.769231,77.0646205 C272.769231,72.9784679 282.664612,67.7600079 288.276918,67.7600079 C291.230764,67.7600079 293.59384,70.6646224 293.544609,72.0430835 C293.495378,74.356929 288.473842,76.0307747 287.144611,76.3753899 C286.849227,76.4738514 286.701534,76.1784669 286.849227,76.0307747 C287.73538,75.1446211 291.526148,72.0923143 291.427687,71.0092377 C291.427687,70.8123147 291.230764,70.5661609 290.590764,70.5661609 C285.667689,70.5661609 276.363076,76.572313 276.363076,78.8861584 Z M283.058459,83.9076954 C283.403074,83.1200033 282.51692,82.775388 281.384613,82.381542 C279.661536,83.1200033 277.839999,83.9569261 275.96923,84.9415412 C270.012309,88.0430787 266.81231,91.2430778 266.81231,92.2276928 C266.81231,92.3753851 267.009233,92.3753851 267.206156,92.3753851 C269.323078,92.3753851 274.738461,89.7169244 278.676921,87.4030789 C280.843075,86.1723101 282.713843,84.7938489 283.058459,83.9076954 Z M321.163069,73.4215447 C321.163069,73.4215447 320.227685,74.4061598 319.095378,75.8338516 C314.71384,81.2000039 309.150765,89.5200014 309.101534,90.5538472 C309.101534,90.7015395 309.150765,90.800001 309.347688,90.800001 C310.381534,90.800001 318.701532,84.0553876 325.249222,77.7046203 C325.593837,77.360005 325.987683,77.7046203 325.741529,78.0492356 C324.658453,79.4769275 322.295377,82.1846189 319.046147,85.581541 C315.796917,88.9784631 309.938457,94.4430768 308.461535,94.4430768 C306.590766,94.4430768 304.22769,91.193847 304.22769,89.3230783 C304.22769,87.7476942 308.16615,82.4800035 310.627688,79.0830814 C304.91692,85.2369257 296.449231,92.8676926 293.593847,94.3446153 C293.446155,94.393846 293.396924,94.393846 293.347693,94.393846 C292.412309,94.393846 291.427694,93.7538462 290.54154,92.7692311 C289.360002,91.4400008 288.473848,89.9630781 288.473848,88.584617 C288.473848,86.7630791 294.332308,79.2307737 299.550768,72.3876988 C300.33846,71.353853 301.175383,70.0246226 301.372306,69.2369305 C301.519998,68.5477 301.076921,68.2523155 300.584614,68.153854 C300.683075,68.1046232 301.569229,67.7600079 302.750767,68.8430845 C304.818459,70.7138532 305.113843,72.7815449 305.064613,73.4707754 C305.064613,73.5692369 305.015382,73.6676984 304.966151,73.76616 C304.966151,73.76616 301.470767,77.7046203 299.599999,80.0184658 C295.76,84.7938489 293.003078,89.1753861 293.003078,90.1600012 C293.003078,90.3569242 293.101539,90.6523087 293.396924,90.6523087 C295.070769,90.6523087 311.809226,77.2123128 315.501532,72.5846218 C316.289225,71.6000068 317.32307,70.1230841 317.224609,68.8430845 C317.224609,68.4492385 317.076917,68.2030847 316.781532,68.0553924 C316.732301,68.0553924 317.716916,67.8584694 318.898455,68.941546 C320.769223,70.6646224 321.310761,72.4369296 321.261531,73.1261601 C321.261531,73.2246217 321.2123,73.3230832 321.163069,73.4215447 Z M332.978459,77.6553895 C327.759999,82.0369267 323.969231,86.7630791 321.95077,90.5046164 C321.015386,92.2276928 320.720001,93.3600002 320.867694,93.606154 C321.212309,93.9015385 320.769232,94.0984615 320.227694,94 C319.686156,93.9015385 317.027695,90.9476932 317.520002,89.4707706 C317.815387,88.584617 318.455387,87.4523097 319.390771,86.0246178 L321.95077,82.2338497 C323.969231,79.2800044 327.415384,74.356929 328.646153,72.4861603 C329.876922,70.5661609 330.566152,68.6953923 329.679999,68.2523155 C329.630768,68.2523155 330.073845,67.8584694 331.304614,68.8923153 C332.289229,69.7292381 334.012305,72.0923143 333.963074,72.7815449 C333.963074,73.3723139 331.846152,76.1292362 329.335383,79.4769275 C330.566152,78.0984663 331.895383,76.769236 333.323074,75.4400056 C336.129227,72.9292371 341.938456,67.9569309 344.252302,67.4646234 C345.286148,67.2677004 346.959993,69.4338536 346.812301,71.7969298 C346.76307,72.4369296 346.516917,73.963083 345.827686,74.6030828 C345.876917,74.1107752 345.679994,73.5692369 345.384609,73.1261601 C344.990763,72.5846218 343.956917,72.0923143 342.627687,72.2400066 C339.624611,72.5846218 336.572304,74.6030828 332.978459,77.6553895 Z M352.523075,71.747699 C355.969228,69.5323151 359.218457,68.0553924 361.729226,68.0553924 C364.732302,68.0553924 367.439993,71.1076992 367.439993,73.6184677 C367.439993,76.0800054 355.230766,84.2030799 346.221538,84.2523106 C344.35077,86.8615406 343.661539,89.1753861 343.563077,90.2092319 C343.513847,90.9476932 344.055385,91.2430778 344.843077,91.2430778 C347.452307,91.2430778 352.030767,88.9292323 355.033843,87.3046174 C359.464611,84.9415412 364.978456,81.4953884 369.556916,77.7046203 C369.753839,77.556928 370.246146,77.9507741 370.049223,78.1476971 C363.30461,85.3353872 350.652306,94.4430768 345.729231,94.4430768 C343.366154,94.4430768 339.329233,90.6523087 339.280002,88.2400017 C339.230771,86.4676946 340.166155,84.3015414 341.643078,82.0861574 C344.153847,78.3446201 348.633845,74.2584675 352.523075,71.747699 Z M364.043071,70.6646224 C360.104611,70.6646224 352.22769,77.2123128 347.255384,82.972311 C351.193844,82.1846189 356.313843,79.0830814 359.710765,76.572313 C363.30461,73.9138522 364.683071,71.7969298 364.683071,71.2061607 C364.683071,70.7630839 364.387687,70.6646224 364.043071,70.6646224 Z" id="Eventsure" fill="#004BBB"></path>
    </g>
</svg>