<svg width="161" height="99" xmlns="http://www.w3.org/2000/svg" xmlns:xlink="http://www.w3.org/1999/xlink"><defs><path id="a" d="M0 112.117V.342h111.659v111.775H0h111.659V.342H-.001v111.775z"/></defs><g fill="none" fill-rule="evenodd"><path fill="#0063F7" d="M18.607 74.415L8.027 88.64 25 81.424z"/><path d="M89.777 74.115c3.57.975 3.246.975 5.193-1.624.974-1.3 0-5.524.65-6.824.973-1.95 2.597-3.899.973-5.2-1.947-1.949-.974-1.949-6.167-1.624-.65 0-3.895-1.3-4.544-2.599l-.65-1.95c-.973-2.599-3.245-.325-4.544-2.274-4.219-5.524-1.623-1.3-7.79-4.55-2.272-1.299-3.57 2.275-6.167 6.5-.973 1.625-2.921.974-2.921 3.249 0 5.199-.65 4.224 3.246 7.148 1.623 1.3 0 3.25 1.623 4.55 4.868 2.924 3.57.974 5.517 11.372 0 .65-.649 2.924-.973 3.899-.65 2.274 2.596 2.274 1.947 4.55-.974 4.548-1.623 2.923 4.544 9.421.325.326.974.651 1.299.651 3.246 0 2.921-1.625 2.921-5.524 0-.975-1.298-2.6-1.947-3.574-.65-.975-.325-2.275.65-2.925 3.245-1.624 1.946-.65 6.815-7.148.65-1.3.325-4.55.325-5.524" fill="#3E66B0"/><g transform="translate(32 -7.459)"><mask id="b" fill="#fff"><use xlink:href="#a"/></mask><path d="M4.869 56.23c0-6.174 1.298-12.023 3.246-17.546l2.92 7.797c.325.65.65.975.974 1.3 9.738 5.199 8.765 5.524 11.361-3.574.65-2.6 3.895-1.95 8.115-1.95.974 0 6.492-3.249 7.465-3.573 2.273-1.3.325-3.25 2.273-4.55 9.413-6.498 6.492-5.198 13.957-7.148 1.299-.325 2.272-1.95 1.623-3.25-.649-1.624.974-3.899 1.948-5.848 1.622-3.25-3.247-4.224-9.09-6.823-.648-.325-5.842-.65-6.815.325-6.492 4.874-3.896 4.549-13.633 1.624 7.79-4.874 17.203-7.798 26.941-7.798 12.659 0 24.344 4.548 33.108 12.347-2.272 1.3-1.623 2.6-.324 4.55.649 1.299.324 2.923-.975 3.573l-.973.325c-1.623.975-1.623 3.25-.325 4.224l2.273 1.624.324.326c6.167 2.6 8.439 4.548 10.387 2.6.325-.65.974-.65 1.623-.65.973 1.949 1.622 3.574 2.271 5.848-2.92-1.3-2.92-.975-4.868 1.3-1.299 1.3-2.921.324-4.868 0-.975-.325-1.624-.975-1.624-1.95 0-3.574-4.544-1.624-8.114-.65h-.65c-2.597 0-5.842-.65-6.167 1.625-.65 3.574 0 2.274-5.843 6.498-1.623.975-.973 2.925 0 9.424 0 .65.325.974.65 1.299 6.816 5.849 4.22 5.524 12.334 2.925 2.597-.65 2.272 1.949 4.545 1.949h1.947c0 7.148-.325 5.849 2.272 9.423 1.948 2.6-2.921 5.524-.325 7.798 1.3.976.975 1.625.65 3.25-.65 2.924 2.596 1.949 2.596 4.874-9.413 12.347-24.019 20.145-40.574 20.145C27.59 107.243 4.87 84.498 4.87 56.23m106.79 0c0-30.869-24.994-55.888-55.83-55.888-30.835 0-55.83 25.02-55.83 55.888s24.995 55.887 55.83 55.887c30.836 0 55.83-25.02 55.83-55.887" fill="#3E66B0" mask="url(#b)"/></g><path d="M11.59 41.475c0 3.327-2.595 6.025-5.795 6.025C2.595 47.5 0 44.802 0 41.475c0-3.327 2.595-6.025 5.795-6.025 3.2 0 5.795 2.698 5.795 6.025" fill="#F60000"/><g><path d="M117.27 28.236c-1.17-.85-1.441-2.472-.606-3.622.836-1.15 2.462-1.392 3.632-.542 1.17.85 1.442 2.472.606 3.621-.835 1.15-2.461 1.393-3.631.543" fill="#DC317F"/><path d="M145.8 53.997c-2.097-1.523-2.583-4.427-1.087-6.487 1.497-2.06 4.41-2.495 6.505-.972 2.096 1.523 2.582 4.428 1.086 6.487-1.496 2.06-4.409 2.495-6.505.972" fill="#F60000"/><path fill="#0063F7" d="M153.838 10.293l1.921-2.644 2.691 1.955 1.987-2.735-2.69-1.955 1.92-2.644-2.783-2.023-1.921 2.644L152.27.936l-1.987 2.735 2.691 1.956-1.921 2.644z"/></g></g></svg>