<svg width="244" height="131" xmlns="http://www.w3.org/2000/svg" xmlns:xlink="http://www.w3.org/1999/xlink"><defs><path d="M12 106.68h123.572c6.628 0 12-5.372 12-12V12c0-6.627-5.372-12-12-12H12C5.373 0 0 5.373 0 12v82.68c0 6.628 5.373 12 12 12z" id="a"/><path d="M12 106.68h39.266L76.931 0H12C5.373 0 0 5.373 0 12v82.68c0 6.628 5.373 12 12 12z" id="b"/></defs><g fill="none" fill-rule="evenodd"><path fill="#0063F7" d="M173.786 19L146 67l77.025-13.735z"/><path fill="#F60000" d="M243.746 0L215 6.46l14.44 8.37zM63.203 11.499c0 3.327-2.595 6.024-5.795 6.024-3.2 0-5.795-2.697-5.795-6.024 0-3.328 2.594-6.025 5.795-6.025 3.2 0 5.795 2.697 5.795 6.025"/><path fill="#0063F7" d="M12.67 35.834H8.563v-4.272h-4.25v4.272H.201v4.419h4.11v4.272h4.25v-4.272h4.109z"/><g transform="translate(32 24)"><use fill="#49C5E3" xlink:href="#a"/><use fill="#89DCF0" xlink:href="#b"/><path d="M125.151 40.062H20.787a4.279 4.279 0 0 1-4.277-4.28v-7.2a4.279 4.279 0 0 1 4.277-4.28h104.364a4.28 4.28 0 0 1 4.278 4.28v7.2a4.28 4.28 0 0 1-4.278 4.28z" fill="#FEFEFE"/><path d="M20.787 25.586a2.998 2.998 0 0 0-2.995 2.996v7.2a2.999 2.999 0 0 0 2.995 2.996H125.15a2.999 2.999 0 0 0 2.995-2.996v-7.2a2.998 2.998 0 0 0-2.995-2.996H20.787zm104.364 15.76H20.787a5.569 5.569 0 0 1-5.561-5.564v-7.2a5.569 5.569 0 0 1 5.56-5.564h104.365a5.569 5.569 0 0 1 5.561 5.564v7.2a5.569 5.569 0 0 1-5.56 5.564z" fill="#0D929F"/><path d="M125.151 64.448H20.787a4.279 4.279 0 0 1-4.277-4.28v-7.2a4.279 4.279 0 0 1 4.277-4.28h104.364a4.28 4.28 0 0 1 4.278 4.28v7.2a4.28 4.28 0 0 1-4.278 4.28" fill="#F5BF3A"/><path d="M20.787 49.972a2.998 2.998 0 0 0-2.995 2.996v7.2a2.999 2.999 0 0 0 2.995 2.996H125.15a2.999 2.999 0 0 0 2.995-2.996v-7.2a2.998 2.998 0 0 0-2.995-2.996H20.787zm104.364 15.76H20.787a5.569 5.569 0 0 1-5.561-5.564v-7.2a5.569 5.569 0 0 1 5.56-5.564h104.365a5.569 5.569 0 0 1 5.561 5.564v7.2a5.569 5.569 0 0 1-5.56 5.564z" fill="#F5BF3A"/><path fill="#0063F7" d="M21.06 34.964h51.267V29.4H21.06z"/><path d="M113.839 0v2.568h23.912c4 0 7.254 3.256 7.254 7.259v87.026c0 4.003-3.254 7.26-7.254 7.26H37.14v2.568h100.61c5.415 0 9.82-4.409 9.82-9.828V9.827c0-5.419-4.405-9.827-9.82-9.827h-23.912zM2.566 9.827c0-4.002 3.256-7.259 7.255-7.259h96.928V0H9.821C4.406 0 0 4.408 0 9.827v87.026c0 5.42 4.406 9.827 9.821 9.827h8.694v-2.568H9.821c-4 0-7.255-3.256-7.255-7.259V9.827z" fill="#0D929F"/><path d="M93.375 87.316a4.28 4.28 0 0 1-4.277-4.28v-7.2a4.28 4.28 0 0 1 4.277-4.28h32.05a4.28 4.28 0 0 1 4.277 4.28v7.2a4.28 4.28 0 0 1-4.278 4.28H93.375z" fill="#0063F7"/><path d="M28.524 56.568a3.733 3.733 0 1 1-3.732-3.734 3.733 3.733 0 0 1 3.732 3.734M40.77 56.568a3.733 3.733 0 1 1-3.731-3.734 3.733 3.733 0 0 1 3.731 3.734M53.017 56.568a3.733 3.733 0 1 1-3.732-3.734 3.733 3.733 0 0 1 3.732 3.734M65.264 56.568a3.733 3.733 0 1 1-3.732-3.734 3.733 3.733 0 0 1 3.732 3.734" fill="#E01F26"/></g></g></svg>