<svg width="243" height="126" xmlns="http://www.w3.org/2000/svg" xmlns:xlink="http://www.w3.org/1999/xlink"><defs><path id="a" d="M81.635.306V73.75H.637V.306h80.998z"/><path id="c" d="M.306 65h74.121V.93H.306z"/></defs><g fill="none" fill-rule="evenodd"><path fill="#0063F7" d="M201.831 96.29L191 115l30.025-5.354z"/><path fill="#F60000" d="M242.746 34L214 40.46l14.44 8.37z"/><path d="M57.47 94.364c0 1.857-1.448 3.363-3.235 3.363S51 96.221 51 94.364C51 92.506 52.448 91 54.235 91s3.235 1.506 3.235 3.364" fill="#DC317F"/><path d="M62.59 46.025c0 3.327-2.595 6.025-5.795 6.025-3.2 0-5.795-2.698-5.795-6.025C51 42.698 53.595 40 56.795 40c3.2 0 5.795 2.698 5.795 6.025" fill="#F60000"/><path fill="#0063F7" d="M12.468 70.272H8.359V66H4.11v4.272H0v4.419h4.109v4.271h4.25v-4.271h4.109z"/><path d="M94.28 15.554L89.71 8.07a4.322 4.322 0 0 0-5.94-1.437l-15.705 9.588c2.107 3.901.824 8.81-3.004 11.146-3.828 2.338-8.78 1.237-11.288-2.419L38.07 34.536a4.322 4.322 0 0 0-1.437 5.94l4.57 7.484a4.321 4.321 0 0 0 5.941 1.437 4.321 4.321 0 0 0-1.437 5.94l35.356 57.907a4.322 4.322 0 0 0 5.941 1.436l15.684-9.576a8.395 8.395 0 0 1 14.33-8.75l15.685-9.576a4.322 4.322 0 0 0 1.436-5.94L98.783 22.93a4.32 4.32 0 0 0-5.94-1.436 4.322 4.322 0 0 0 1.436-5.94" fill="#F5A6B6"/><path fill="#D8666E" d="M108.773 82.131l-6.987 4.266L84 57.265 90.986 53z"/><g fill="#E01F26"><path d="M56.155 45.228l-5.641 3.444-1.563-2.56 5.641-3.444zM64.915 39.88l-5.642 3.444-1.562-2.56 5.641-3.444zM73.674 34.531l-5.64 3.444-1.564-2.56 5.641-3.444zM82.434 29.183l-5.64 3.445-1.565-2.56 5.642-3.446zM91.194 23.835l-5.642 3.444-1.562-2.56 5.641-3.444zM92.96 79.082l-11.596 7.08-18.832-30.844 11.596-7.08z"/><path d="M44.896 55.487L64.503 87.6l2.213-1.35-19.607-32.114a3.03 3.03 0 0 1 1.006-4.159l-1.352-2.213a3.029 3.029 0 0 1-4.158-1.005l-4.57-7.485a3.028 3.028 0 0 1 1.006-4.158l14.72-8.988a9.683 9.683 0 0 0 12.27 1.82 9.684 9.684 0 0 0 3.988-11.747l14.72-8.987a3.028 3.028 0 0 1 4.159 1.005l4.57 7.484a3.03 3.03 0 0 1-1.006 4.16l1.352 2.212a3.029 3.029 0 0 1 4.158 1.005l8.347 13.671 2.213-1.35-8.347-13.672a5.607 5.607 0 0 0-3.986-2.629 5.61 5.61 0 0 0-.518-4.748l-4.57-7.484A5.625 5.625 0 0 0 83.388 5L66.635 15.23l.585 1.082a7.09 7.09 0 0 1-2.54 9.423 7.09 7.09 0 0 1-9.542-2.047l-.695-1.014-16.754 10.23a5.626 5.626 0 0 0-1.867 7.722l4.57 7.484a5.608 5.608 0 0 0 3.986 2.63 5.609 5.609 0 0 0 .518 4.747M108.632 40.54l24.696 40.447a3.028 3.028 0 0 1-1.006 4.158l-14.652 8.946c-3.01-3.708-8.387-4.715-12.572-2.16-4.186 2.556-5.748 7.8-3.824 12.171l-14.651 8.946a3.028 3.028 0 0 1-4.158-1.006l-6.26-10.253-2.213 1.352 6.26 10.252a5.624 5.624 0 0 0 7.722 1.868l16.79-10.252-.675-1.107c-2.04-3.34-.981-7.718 2.36-9.758 3.34-2.039 7.718-.98 9.758 2.36l.675 1.106 16.79-10.252a5.624 5.624 0 0 0 1.869-7.722L110.845 39.19l-2.213 1.351zM68.579 89.3l-2.213 1.351 4.664 7.64 2.213-1.353z"/></g><path fill="#D8666E" d="M94.596 83L83 90.08l3.661 5.996 11.596-7.08z"/><path d="M164.314 33.819l2.913-8.271a4.322 4.322 0 0 0-2.64-5.512l-17.354-6.113c-1.692 4.098-6.307 6.205-10.538 4.715-4.23-1.491-6.506-6.025-5.256-10.278l-17.354-6.113a4.321 4.321 0 0 0-5.512 2.64l-2.914 8.27a4.322 4.322 0 0 0 2.64 5.513 4.322 4.322 0 0 0-5.511 2.64L80.247 85.305a4.322 4.322 0 0 0 2.64 5.512l17.333 6.105a8.394 8.394 0 0 1 10.707-5.13 8.395 8.395 0 0 1 5.13 10.708l17.332 6.106a4.322 4.322 0 0 0 5.512-2.641l22.54-63.993a4.322 4.322 0 0 0-2.64-5.512 4.322 4.322 0 0 0 5.513-2.64" fill="#F5BF3A"/><path fill="#C76815" d="M117.234 23.025L111 20.829l.997-2.829 6.234 2.196zM127.234 26.026L121 23.83l.997-2.83 6.234 2.197zM136.234 30.025L130 27.829l.997-2.829 6.234 2.196zM146.235 33.025L140 30.83l.997-2.83 6.234 2.195zM156.234 36.026L150 33.83l.997-2.83 6.234 2.197zM113.815 72.6L101 68.086 113.006 34l12.815 4.514zM121.721 86.913L114 84.193 125.34 52l7.721 2.72z"/><path d="M102.343 20.52L89.842 56.007l2.446.861 12.5-35.489a3.029 3.029 0 0 1 3.859-1.848l.862-2.446a3.028 3.028 0 0 1-1.85-3.858l2.915-8.27a3.029 3.029 0 0 1 3.858-1.849L130.7 8.84a9.682 9.682 0 0 0 17.967 6.33l16.268 5.73a3.029 3.029 0 0 1 1.848 3.857l-2.914 8.271a3.029 3.029 0 0 1-3.858 1.85l-.861 2.444a3.03 3.03 0 0 1 1.848 3.86l-5.322 15.106 2.446.862 5.32-15.108a5.61 5.61 0 0 0-.48-4.75 5.61 5.61 0 0 0 3.353-3.402l2.914-8.27a5.625 5.625 0 0 0-3.433-7.167l-18.514-6.52-.47 1.135a7.09 7.09 0 0 1-8.908 3.987 7.09 7.09 0 0 1-4.443-8.69l.347-1.18-18.514-6.52a5.625 5.625 0 0 0-7.166 3.432l-2.913 8.271a5.606 5.606 0 0 0 .48 4.751 5.612 5.612 0 0 0-3.352 3.401" fill="#D67927"/><path d="M153.719 61l-15.745 44.698a3.028 3.028 0 0 1-3.858 1.848l-16.192-5.703c.973-4.675-1.644-9.48-6.27-11.109-4.626-1.63-9.677.474-11.85 4.727l-16.19-5.704a3.028 3.028 0 0 1-1.85-3.858l3.992-11.33-2.445-.862-3.991 11.331a5.623 5.623 0 0 0 3.432 7.165l18.556 6.536.43-1.223a7.107 7.107 0 0 1 9.054-4.337c3.692 1.301 5.638 5.362 4.337 9.054l-.43 1.223 18.556 6.536a5.625 5.625 0 0 0 7.165-3.432l15.745-44.699-2.446-.861zM90.419 59.861L87.973 59 85 67.441l2.446.861z" fill="#C76815"/><path fill="#A6A736" d="M113.149 76.514L100.334 72 98 78.626l12.815 4.514z"/><path d="M197.424 91.19l7.885-3.839a4.322 4.322 0 0 0 1.994-5.777L199.25 65.03c-4.083 1.727-8.847-.016-10.81-4.049-1.963-4.033-.397-8.859 3.48-11.007l-8.052-16.543a4.322 4.322 0 0 0-5.777-1.995l-7.884 3.838a4.323 4.323 0 0 0-1.995 5.778 4.322 4.322 0 0 0-5.777-1.995l-61.003 29.695a4.322 4.322 0 0 0-1.995 5.777l8.043 16.523a8.395 8.395 0 0 1 7.349 15.097l8.043 16.523a4.322 4.322 0 0 0 5.777 1.995l61.003-29.695a4.322 4.322 0 0 0 1.995-5.777 4.32 4.32 0 0 0 5.777 1.994" fill="#49C5E3"/><path fill="#0D929F" d="M170.893 50.255L168 44.312 170.698 43l2.892 5.943zM175.893 59.256L173 53.313 175.698 52l2.892 5.944zM179.893 68.255L177 62.312 179.698 61l2.892 5.943zM184.894 77.256L182 71.313 184.698 70l2.893 5.943zM188.893 86.256L186 80.313 188.698 79l2.892 5.944zM133.947 83.033L128 70.817 160.494 55l5.946 12.216z"/><path fill="#18A9C0" d="M129.583 98.299L126 90.939 156.69 76l3.582 7.36z"/><g transform="translate(128 29)"><mask id="b" fill="#fff"><use xlink:href="#a"/></mask><path d="M34.468 8.493L.637 24.961l1.135 2.331 33.831-16.468a3.03 3.03 0 0 1 4.044 1.396l2.331-1.134a3.03 3.03 0 0 1 1.396-4.044l7.885-3.838A3.028 3.028 0 0 1 55.303 4.6l7.549 15.507a9.682 9.682 0 0 0 8.337 17.128l7.549 15.508a3.03 3.03 0 0 1-1.396 4.044l-7.885 3.838a3.03 3.03 0 0 1-4.044-1.396l-2.331 1.135a3.03 3.03 0 0 1-1.396 4.044l-14.402 7.01 1.135 2.332 14.401-7.01a5.61 5.61 0 0 0 2.997-3.719 5.609 5.609 0 0 0 4.775-.065l7.885-3.838a5.624 5.624 0 0 0 2.592-7.51L72.478 33.96l-1.133.48A7.088 7.088 0 0 1 65.15 21.71l1.076-.597-8.591-17.649A5.625 5.625 0 0 0 50.124.872L42.24 4.71a5.613 5.613 0 0 0-2.997 3.72 5.605 5.605 0 0 0-4.775.063" fill="#0D929F" mask="url(#b)"/></g><g transform="translate(98 61)"><mask id="d" fill="#fff"><use xlink:href="#c"/></mask><path d="M73.292 41.361l-42.61 20.741c-1.5.73-3.314.104-4.044-1.396l-7.514-15.435c3.978-2.643 5.491-7.901 3.345-12.311-2.147-4.41-7.219-6.462-11.752-4.962L3.203 12.563A3.03 3.03 0 0 1 4.6 8.519L15.4 3.261 14.265.93l-10.8 5.258a5.624 5.624 0 0 0-2.593 7.51l8.61 17.689 1.166-.568a7.106 7.106 0 0 1 9.49 3.276c1.713 3.52.243 7.776-3.276 9.49l-1.166.567 8.61 17.689a5.625 5.625 0 0 0 7.511 2.593l42.61-20.742-1.135-2.331z" fill="#0D929F" mask="url(#d)"/></g><path fill="#0D929F" d="M126.182 58.331L125.047 56 117 59.917l1.135 2.331zM131.263 85.216L125.316 73 119 76.074l5.947 12.217z"/></g></svg>