<?xml version="1.0" encoding="UTF-8"?>
<svg width="161px" height="99px" viewBox="0 0 161 99" version="1.1" xmlns="http://www.w3.org/2000/svg" xmlns:xlink="http://www.w3.org/1999/xlink">
    <!-- Generator: Sketch 48.1 (47250) - http://www.bohemiancoding.com/sketch -->
    <title>Group 16</title>
    <desc>Created with Sketch.</desc>
    <defs>
        <polygon id="path-1" points="-2.71050543e-20 112.116834 -2.71050543e-20 0.341648438 111.658709 0.341648438 111.658709 112.117188 -2.71050543e-20 112.117188 111.65862 112.116834 111.65862 0.342178125 -8.81889764e-05 0.342178125 -8.81889764e-05 112.116834"></polygon>
    </defs>
    <g id="Desktop-HD" stroke="none" stroke-width="1" fill="none" fill-rule="evenodd" transform="translate(-628.000000, -1264.000000)">
        <g id="how-it-works" transform="translate(130.000000, 1081.000000)">
            <g id="Group-16" transform="translate(498.000000, 172.000000)">
                <polygon id="Page-1" fill="#0063F7" points="18.6073486 85.4153584 8.02734375 99.6386719 25 92.4239083"></polygon>
                <g id="Page-1" transform="translate(32.000000, 3.000000)">
                    <path d="M57.7768315,82.1150695 C61.3476031,83.0896945 61.0230677,83.0896945 62.9702803,80.4906945 C63.9438866,79.1903117 62.9702803,74.9669367 63.6193512,73.6665539 C64.5929575,71.7173039 66.2165165,69.7680539 64.5929575,68.4676711 C62.6457449,66.5184211 63.6193512,66.5184211 58.4259024,66.8432961 C57.7768315,66.8432961 54.5305953,65.5437961 53.8815244,64.2442961 L53.2324535,62.2941633 C52.2588472,59.6951633 49.9870992,61.9692883 48.6880756,60.0200383 C44.469115,54.4962805 47.0653984,58.7205383 40.8983433,55.4709055 C38.6257134,54.1714055 37.3275717,57.7450305 34.7312882,61.9692883 C33.7576819,63.5945461 31.8095874,62.9439133 31.8095874,65.2189211 C31.8095874,70.4178039 31.1605165,69.4431789 35.0558236,72.3670539 C36.6785008,73.6665539 35.0558236,75.6166867 36.6785008,76.9161867 C41.5474142,79.8409445 40.2492724,77.8908117 42.196485,88.2885773 C42.196485,88.9383273 41.5474142,91.2133352 41.2228787,92.1879602 C40.5738079,94.4620852 43.8191622,94.4620852 43.1700913,96.737093 C42.196485,101.286226 41.5474142,99.660968 47.7144693,106.159351 C48.0390047,106.485109 48.6880756,106.809984 49.012611,106.809984 C52.2588472,106.809984 51.9343118,105.184726 51.9343118,101.286226 C51.9343118,100.310718 50.6361701,98.686343 49.9870992,97.711718 C49.3371465,96.737093 49.6616819,95.4367102 50.6361701,94.7869602 C53.8815244,93.1625852 52.5833827,94.1372102 57.4522961,87.6388273 C58.1013669,86.3393273 57.7768315,83.0896945 57.7768315,82.1150695" id="Fill-1" fill="#3E66B0"></path>
                    <g id="Group-5" transform="translate(0.000000, 0.541164)">
                        <mask id="mask-2" fill="white">
                            <use xlink:href="#path-1"></use>
                        </mask>
                        <g id="Clip-4"></g>
                        <path d="M4.8688252,56.2295062 C4.8688252,50.0559984 6.16696693,44.2073656 8.11506142,38.6836078 L11.0358803,46.4814906 C11.3604157,47.1312406 11.6849512,47.4561156 12.0094866,47.7809906 C21.7473134,52.9798734 20.7737071,53.3047484 23.3699906,44.2073656 C24.0199433,41.6074828 27.2652976,42.2572328 31.4851402,42.2572328 C32.4587465,42.2572328 37.9767307,39.0084828 38.950337,38.6836078 C41.2229669,37.383225 39.2748724,35.433975 41.2229669,34.134475 C50.6362583,27.6360922 47.7145575,28.9355922 55.1797543,26.9863422 C56.478778,26.6614672 57.4523843,25.0362094 56.8033134,23.7367094 C56.1542425,22.1123344 57.7769197,19.8373266 58.750526,17.8880766 C60.3732031,14.6384437 55.5042898,13.6638187 49.6617701,11.0648187 C49.0126992,10.7399437 43.8192504,10.4141859 42.8456441,11.3896937 C36.3540535,16.2637016 38.950337,15.9388266 29.2133921,13.0140688 C37.0031244,8.14006094 46.4164157,5.21618594 56.1542425,5.21618594 C68.8128882,5.21618594 80.4979276,9.76443594 89.262148,17.5632016 C86.9895181,18.8627016 87.638589,20.1622016 88.9376126,22.1123344 C89.5866835,23.4118344 89.262148,25.0362094 87.9631244,25.6859594 L86.9895181,26.0108344 C85.3668409,26.9863422 85.3668409,29.2604672 86.6649827,30.2350922 L88.9376126,31.8594672 L89.262148,32.185225 C95.4292031,34.784225 97.7009512,36.733475 99.6490457,34.784225 C99.9735811,34.134475 100.622652,34.134475 101.271723,34.134475 C102.245329,36.083725 102.8944,37.7089828 103.543471,39.9831078 C100.622652,38.6836078 100.622652,39.0084828 98.6745575,41.2826078 C97.3764157,42.5821078 95.7537386,41.6074828 93.806526,41.2826078 C92.8320378,40.9577328 92.1829669,40.3079828 92.1829669,39.3333578 C92.1829669,35.75885 87.638589,37.7089828 84.0686992,38.6836078 L83.4196283,38.6836078 C80.822463,38.6836078 77.5771087,38.0338578 77.2516913,40.3079828 C76.6026205,43.8824906 77.2516913,42.5821078 71.4091717,46.8063656 C69.7864945,47.7809906 70.4355654,49.7311234 71.4091717,56.2295062 C71.4091717,56.8792562 71.7337071,57.2041312 72.0591244,57.5290062 C78.8752504,63.3776391 76.278085,63.0527641 84.3932346,60.4537641 C86.9895181,59.8040141 86.6649827,62.4030141 88.9376126,62.4030141 L90.8848252,62.4030141 C90.8848252,69.5511469 90.5602898,68.2516469 93.1565732,71.8261547 C95.1046677,74.4251547 90.2357543,77.3499125 92.8320378,79.6240375 C94.1310614,80.5995453 93.806526,81.2492953 93.4811087,82.8736703 C92.8320378,85.7975453 96.078274,84.8229203 96.078274,87.7476781 C86.6649827,100.094694 72.0591244,107.893459 55.5042898,107.893459 C27.5898331,107.242827 4.8688252,84.4980453 4.8688252,56.2295062 M111.65862,56.2295062 C111.65862,25.3610844 86.6649827,0.342178125 55.8288252,0.342178125 C24.9935496,0.342178125 -8.81889764e-05,25.3610844 -8.81889764e-05,56.2295062 C-8.81889764e-05,87.0979281 24.9935496,112.116834 55.8288252,112.116834 C86.6649827,112.116834 111.65862,87.0979281 111.65862,56.2295062" id="Fill-3" fill="#3E66B0" mask="url(#mask-2)"></path>
                    </g>
                </g>
                <path d="M11.5898977,52.4751574 C11.5898977,55.802456 8.99528563,58.5 5.79494885,58.5 C2.59461207,58.5 0,55.802456 0,52.4751574 C0,49.1478588 2.59461207,46.4503148 5.79494885,46.4503148 C8.99528563,46.4503148 11.5898977,49.1478588 11.5898977,52.4751574" id="Fill-3" fill="#F60000"></path>
                <g id="Group-14" transform="translate(145.796875, 34.093705) rotate(126.000000) translate(-145.796875, -34.093705) translate(120.796875, 10.837891)">
                    <path d="M45.9274979,43.311361 C45.9274979,44.7577804 44.7753425,45.9306012 43.3538488,45.9306012 C41.9326061,45.9306012 40.7804507,44.7577804 40.7804507,43.311361 C40.7804507,41.8649417 41.9326061,40.6921209 43.3538488,40.6921209 C44.7753425,40.6921209 45.9274979,41.8649417 45.9274979,43.311361" id="Fill-1" fill="#DC317F"></path>
                    <path d="M50,5.08951887 C50,7.68042543 47.9360341,9.78095357 45.3902254,9.78095357 C42.8444166,9.78095357 40.7804507,7.68042543 40.7804507,5.08951887 C40.7804507,2.4986123 42.8444166,0.398084168 45.3902254,0.398084168 C47.9360341,0.398084168 50,2.4986123 50,5.08951887" id="Fill-3" fill="#F60000"></path>
                    <polygon id="Fill-10" fill="#0063F7" points="9.91796399 24.2743156 6.64958903 24.2743156 6.64958903 20.9480429 3.26837496 20.9480429 3.26837496 24.2743156 0 24.2743156 0 27.7154264 3.26837496 27.7154264 3.26837496 31.0416991 6.64958903 31.0416991 6.64958903 27.7154264 9.91796399 27.7154264"></polygon>
                </g>
            </g>
        </g>
    </g>
</svg>