<?xml version="1.0" encoding="UTF-8"?>
<svg width="244px" height="131px" viewBox="0 0 244 131" version="1.1" xmlns="http://www.w3.org/2000/svg" xmlns:xlink="http://www.w3.org/1999/xlink">
    <!-- Generator: Sketch 48.1 (47250) - http://www.bohemiancoding.com/sketch -->
    <title>Group 15</title>
    <desc>Created with Sketch.</desc>
    <defs>
        <path d="M12,106.680712 L135.572254,106.680712 C142.199671,106.680712 147.572254,101.308129 147.572254,94.680712 L147.572254,12 C147.572254,5.372583 142.199671,5.58920087e-16 135.572254,1.77635684e-15 L12,1.77635684e-15 C5.372583,2.99379359e-15 8.0701597e-15,5.372583 8.8817842e-15,12 L0,94.680712 C-8.01786863e-15,101.308129 5.372583,106.680712 12,106.680712 Z" id="path-1"></path>
        <path d="M12,106.680712 L51.2661734,106.680712 L76.9309189,-1.99840144e-15 L12,-2.22044605e-16 C5.372583,9.95392147e-16 -8.11624501e-16,5.372583 0,12 L-1.77635684e-15,94.680712 C-9.79422547e-15,101.308129 5.372583,106.680712 12,106.680712 Z" id="path-3"></path>
    </defs>
    <g id="Desktop-HD" stroke="none" stroke-width="1" fill="none" fill-rule="evenodd" transform="translate(-212.000000, -1246.000000)">
        <g id="how-it-works" transform="translate(130.000000, 1081.000000)">
            <g id="Group-15" transform="translate(82.000000, 165.000000)">
                <polygon id="Page-1" fill="#0063F7" points="173.785621 19 146 67 223.025052 53.2653384"></polygon>
                <polygon id="Page-1" fill="#F60000" points="243.746413 0 215 6.45971906 229.439553 14.8304938"></polygon>
                <path d="M63.2027252,11.4986027 C63.2027252,14.8259013 60.6081131,17.5234453 57.4077763,17.5234453 C54.2074396,17.5234453 51.6128275,14.8259013 51.6128275,11.4986027 C51.6128275,8.17130408 54.2074396,5.4737601 57.4077763,5.4737601 C60.6081131,5.4737601 63.2027252,8.17130408 63.2027252,11.4986027" id="Fill-3" fill="#F60000"></path>
                <polygon id="Fill-10" fill="#0063F7" points="12.6706002 35.833765 8.56192521 35.833765 8.56192521 31.5620931 4.31140016 31.5620931 4.31140016 35.833765 0.202725188 35.833765 0.202725188 40.2529143 4.31140016 40.2529143 4.31140016 44.5245862 8.56192521 44.5245862 8.56192521 40.2529143 12.6706002 40.2529143"></polygon>
                <g id="Page-1" transform="translate(32.000000, 24.000000)">
                    <mask id="mask-2" fill="white">
                        <use xlink:href="#path-1"></use>
                    </mask>
                    <use id="Clip-20" fill="#49C5E3" xlink:href="#path-1"></use>
                    <mask id="mask-4" fill="white">
                        <use xlink:href="#path-3"></use>
                    </mask>
                    <use id="Clip-20" fill="#89DCF0" xlink:href="#path-3"></use>
                    <path d="M125.151281,40.061656 L20.7873272,40.061656 C18.4244601,40.061656 16.5098705,38.145072 16.5098705,35.781656 L16.5098705,28.58184 C16.5098705,26.218424 18.4244601,24.30184 20.7873272,24.30184 L125.151281,24.30184 C127.513292,24.30184 129.428738,26.218424 129.428738,28.58184 L129.428738,35.781656 C129.428738,38.145072 127.513292,40.061656 125.151281,40.061656 Z" id="Fill-1" fill="#FEFEFE"></path>
                    <path d="M20.7866428,25.5860112 C19.1355445,25.5860112 17.7924231,26.9299312 17.7924231,28.5820112 L17.7924231,35.7818272 C17.7924231,37.4330512 19.1355445,38.7778272 20.7866428,38.7778272 L125.151452,38.7778272 C126.80255,38.7778272 128.145672,37.4330512 128.145672,35.7818272 L128.145672,28.5820112 C128.145672,26.9299312 126.80255,25.5860112 125.151452,25.5860112 L20.7866428,25.5860112 Z M125.151452,41.3458272 L20.7866428,41.3458272 C17.7205618,41.3458272 15.2259491,38.8497312 15.2259491,35.7818272 L15.2259491,28.5820112 C15.2259491,25.5141072 17.7205618,23.0180112 20.7866428,23.0180112 L125.151452,23.0180112 C128.217533,23.0180112 130.712146,25.5141072 130.712146,28.5820112 L130.712146,35.7818272 C130.712146,38.8497312 128.217533,41.3458272 125.151452,41.3458272 Z" id="Fill-3" fill="#0D929F"></path>
                    <path d="M125.151281,64.4475552 L20.7873272,64.4475552 C18.4244601,64.4475552 16.5098705,62.5309712 16.5098705,60.1675552 L16.5098705,52.9677392 C16.5098705,50.6043232 18.4244601,48.6877392 20.7873272,48.6877392 L125.151281,48.6877392 C127.513292,48.6877392 129.428738,50.6043232 129.428738,52.9677392 L129.428738,60.1675552 C129.428738,62.5309712 127.513292,64.4475552 125.151281,64.4475552" id="Fill-5" fill="#F5BF3A"></path>
                    <path d="M20.7866428,49.971996 C19.1355445,49.971996 17.7924231,51.315916 17.7924231,52.967996 L17.7924231,60.167812 C17.7924231,61.819036 19.1355445,63.163812 20.7866428,63.163812 L125.151452,63.163812 C126.80255,63.163812 128.145672,61.819036 128.145672,60.167812 L128.145672,52.967996 C128.145672,51.315916 126.80255,49.971996 125.151452,49.971996 L20.7866428,49.971996 Z M125.151452,65.731812 L20.7866428,65.731812 C17.7205618,65.731812 15.2259491,63.235716 15.2259491,60.167812 L15.2259491,52.967996 C15.2259491,49.900092 17.7205618,47.403996 20.7866428,47.403996 L125.151452,47.403996 C128.217533,47.403996 130.712146,49.900092 130.712146,52.967996 L130.712146,60.167812 C130.712146,63.235716 128.217533,65.731812 125.151452,65.731812 Z" id="Fill-7" fill="#F5BF3A"></path>
                    <polygon id="Fill-19" fill="#0063F7" points="21.0604855 34.964176 72.326659 34.964176 72.326659 29.400176 21.0604855 29.400176"></polygon>
                    <path d="M113.838948,0 L113.838948,2.568 L137.750786,2.568 C141.751064,2.568 145.005353,5.824224 145.005353,9.82688 L145.005353,96.852976 C145.005353,100.856488 141.751064,104.112712 137.750786,104.112712 L37.1407283,104.112712 L37.1407283,106.680712 L137.750786,106.680712 C143.166046,106.680712 147.571827,102.272312 147.571827,96.852976 L147.571827,9.82688 C147.571827,4.4084 143.166046,0 137.750786,0 L113.838948,0 Z" id="Fill-21" fill="#0D929F"></path>
                    <path d="M2.56647399,9.827308 C2.56647399,5.824652 5.8216185,2.568428 9.82104046,2.568428 L106.749064,2.568428 L106.749064,0.000428 L9.82104046,0.000428 C4.40578035,0.000428 0,4.407972 0,9.827308 L0,96.853404 C0,102.27274 4.40578035,106.680284 9.82104046,106.680284 L18.5153988,106.680284 L18.5153988,104.112284 L9.82104046,104.112284 C5.8216185,104.112284 2.56647399,100.85606 2.56647399,96.853404 L2.56647399,9.827308 Z" id="Fill-22" fill="#0D929F"></path>
                    <path d="M93.3749965,87.3161088 C91.012985,87.3161088 89.0975399,85.3995248 89.0975399,83.0361088 L89.0975399,75.8362928 C89.0975399,73.4728768 91.012985,71.5562928 93.3749965,71.5562928 L125.424268,71.5562928 C127.78628,71.5562928 129.701725,73.4728768 129.701725,75.8362928 L129.701725,83.0361088 C129.701725,85.3995248 127.78628,87.3161088 125.424268,87.3161088 L93.3749965,87.3161088 Z" id="Fill-9" fill="#0063F7"></path>
                    <path d="M28.5237064,56.5677328 C28.5237064,58.6298368 26.8529318,60.3016048 24.7920532,60.3016048 C22.7311746,60.3016048 21.0604,58.6298368 21.0604,56.5677328 C21.0604,54.5056288 22.7311746,52.8338608 24.7920532,52.8338608 C26.8529318,52.8338608 28.5237064,54.5056288 28.5237064,56.5677328" id="Fill-11" fill="#E01F26"></path>
                    <path d="M40.7703214,56.5677328 C40.7703214,58.6298368 39.0995468,60.3016048 37.0386682,60.3016048 C34.9777896,60.3016048 33.307015,58.6298368 33.307015,56.5677328 C33.307015,54.5056288 34.9777896,52.8338608 37.0386682,52.8338608 C39.0995468,52.8338608 40.7703214,54.5056288 40.7703214,56.5677328" id="Fill-13" fill="#E01F26"></path>
                    <path d="M53.0169364,56.5677328 C53.0169364,58.6298368 51.3461618,60.3016048 49.2852832,60.3016048 C47.2244046,60.3016048 45.5536301,58.6298368 45.5536301,56.5677328 C45.5536301,54.5056288 47.2244046,52.8338608 49.2852832,52.8338608 C51.3461618,52.8338608 53.0169364,54.5056288 53.0169364,56.5677328" id="Fill-15" fill="#E01F26"></path>
                    <path d="M65.2635514,56.5677328 C65.2635514,58.6298368 63.5927769,60.3016048 61.5318983,60.3016048 C59.4710197,60.3016048 57.8002451,58.6298368 57.8002451,56.5677328 C57.8002451,54.5056288 59.4710197,52.8338608 61.5318983,52.8338608 C63.5927769,52.8338608 65.2635514,54.5056288 65.2635514,56.5677328" id="Fill-17" fill="#E01F26"></path>
                </g>
            </g>
        </g>
    </g>
</svg>