<?xml version="1.0" encoding="UTF-8"?>
<svg width="243px" height="126px" viewBox="0 0 243 126" version="1.1" xmlns="http://www.w3.org/2000/svg" xmlns:xlink="http://www.w3.org/1999/xlink">
    <!-- Generator: Sketch 48.1 (47250) - http://www.bohemiancoding.com/sketch -->
    <title>Group 18</title>
    <desc>Created with Sketch.</desc>
    <defs>
        <polygon id="path-1" points="81.635 0.305779234 81.635 73.7501 0.637 73.7501 0.637 0.305779234 81.635 0.305779234"></polygon>
        <polygon id="path-3" points="0.30595646 65 74.4273 65 74.4273 0.93 0.30595646 0.93"></polygon>
    </defs>
    <g id="Desktop-HD" stroke="none" stroke-width="1" fill="none" fill-rule="evenodd" transform="translate(-1000.000000, -1251.000000)">
        <g id="how-it-works" transform="translate(130.000000, 1081.000000)">
            <g id="Group-18" transform="translate(870.000000, 170.000000)">
                <polygon id="Page-1" fill="#0063F7" points="201.831083 96.2891722 191 115 221.025052 109.646106"></polygon>
                <polygon id="Page-1" fill="#F60000" points="242.746413 34 214 40.4597191 228.439553 48.8304938"></polygon>
                <path d="M57.4703543,94.3636852 C57.4703543,96.2212084 56.0219794,97.7273704 54.2350194,97.7273704 C52.4483748,97.7273704 51,96.2212084 51,94.3636852 C51,92.506162 52.4483748,91 54.2350194,91 C56.0219794,91 57.4703543,92.506162 57.4703543,94.3636852" id="Fill-1" fill="#DC317F"></path>
                <path d="M62.5898977,46.0248426 C62.5898977,49.3521412 59.9952856,52.0496852 56.7949488,52.0496852 C53.5946121,52.0496852 51,49.3521412 51,46.0248426 C51,42.697544 53.5946121,40 56.7949488,40 C59.9952856,40 62.5898977,42.697544 62.5898977,46.0248426" id="Fill-3" fill="#F60000"></path>
                <polygon id="Fill-10" fill="#0063F7" points="12.467875 70.2716719 8.35920003 70.2716719 8.35920003 66 4.10867498 66 4.10867498 70.2716719 0 70.2716719 0 74.6908212 4.10867498 74.6908212 4.10867498 78.9624931 8.35920003 78.9624931 8.35920003 74.6908212 12.467875 74.6908212"></polygon>
                <path d="M94.2792649,15.5542649 L89.7092649,8.07026487 C88.4662649,6.03326487 85.8062649,5.39026487 83.7692649,6.63326487 L68.0652649,16.2212649 C70.1722649,20.1222649 68.8892649,25.0302649 65.0612649,27.3672649 C61.2332649,29.7052649 56.2802649,28.6042649 53.7732649,24.9482649 L38.0702649,34.5362649 C36.0332649,35.7792649 35.3902649,38.4392649 36.6332649,40.4762649 L41.2032649,47.9602649 C42.4472649,49.9982649 45.1072649,50.6412649 47.1442649,49.3972649 C45.1072649,50.6412649 44.4632649,53.3002649 45.7072649,55.3372649 L81.0632649,113.244265 C82.3072649,115.281265 84.9672649,115.924265 87.0042649,114.680265 L102.688265,105.104265 C100.272265,101.147265 101.521265,95.9802649 105.478265,93.5642649 C109.435265,91.1482649 114.602265,92.3972649 117.018265,96.3542649 L132.703265,86.7782649 C134.740265,85.5342649 135.383265,82.8752649 134.139265,80.8372649 L98.7832649,22.9312649 C97.5392649,20.8942649 94.8802649,20.2512649 92.8432649,21.4952649 C94.8802649,20.2512649 95.5232649,17.5912649 94.2792649,15.5542649" id="Fill-1" fill="#F5A6B6"></path>
                <polygon id="Fill-15" fill="#D8666E" points="108.773 82.131 101.786 86.397 84 57.265 90.986 53"></polygon>
                <g id="Group-13" transform="translate(35.000000, 4.000000)" fill="#E01F26">
                    <polygon id="Fill-3" points="21.155 41.2283 15.514 44.6723 13.951 42.1123 19.592 38.6683"></polygon>
                    <polygon id="Fill-5" points="29.915 35.8797 24.273 39.3237 22.711 36.7637 28.352 33.3197"></polygon>
                    <polygon id="Fill-7" points="38.6745 30.5312 33.0335 33.9752 31.4705 31.4152 37.1115 27.9712"></polygon>
                    <polygon id="Fill-9" points="47.4345 25.1825 41.7935 28.6275 40.2295 26.0675 45.8705 22.6225"></polygon>
                    <polygon id="Fill-11" points="56.1941 19.835 50.5521 23.279 48.9901 20.719 54.6311 17.275"></polygon>
                    <polygon id="Fill-13" points="57.9599 75.0821 46.3639 82.1621 27.5319 51.3181 39.1279 44.2381"></polygon>
                    <path d="M9.8956,51.4871 L29.5026,83.6001 L31.7156,82.2491 L12.1086,50.1361 C11.2396,48.7121 11.6906,46.8461 13.1146,45.9771 L11.7626,43.7641 C10.3396,44.6331 8.4736,44.1821 7.6046,42.7591 L3.0346,35.2741 C2.1656,33.8511 2.6166,31.9851 4.0406,31.1161 L18.7606,22.1281 C21.8326,25.5771 26.9926,26.4141 31.0316,23.9481 C35.0696,21.4821 36.6836,16.5091 35.0186,12.2011 L49.7396,3.2141 C51.1626,2.3441 53.0286,2.7961 53.8976,4.2191 L58.4676,11.7031 C59.3366,13.1271 58.8856,14.9931 57.4616,15.8621 L58.8136,18.0751 C60.2366,17.2061 62.1026,17.6571 62.9716,19.0801 L71.3186,32.7511 L73.5316,31.4001 L65.1846,17.7291 C64.2806,16.2481 62.7946,15.3331 61.1986,15.1001 C61.7196,13.5731 61.5856,11.8341 60.6806,10.3521 L56.1106,2.8681 C54.4966,0.2241 51.0316,-0.6139 48.3876,1.0001 L31.6346,11.2291 L32.2196,12.3121 C34.0126,15.6311 32.8976,19.7701 29.6796,21.7351 C26.4626,23.6991 22.2716,22.8001 20.1376,19.6881 L19.4426,18.6741 L2.6886,28.9031 C0.0456,30.5171 -0.7924,33.9821 0.8216,36.6261 L5.3916,44.1101 C6.2956,45.5921 7.7816,46.5061 9.3776,46.7401 C8.8566,48.2661 8.9906,50.0051 9.8956,51.4871" id="Fill-17"></path>
                    <path d="M73.6319,36.5401 L98.3279,76.9871 C99.1969,78.4101 98.7459,80.2761 97.3219,81.1451 L82.6699,90.0911 C79.6609,86.3831 74.2829,85.3761 70.0979,87.9311 C65.9119,90.4871 64.3499,95.7311 66.2739,100.1021 L51.6229,109.0481 C50.1999,109.9171 48.3339,109.4661 47.4649,108.0421 L41.2049,97.7891 L38.9919,99.1411 L45.2519,109.3931 C46.8659,112.0371 50.3299,112.8751 52.9739,111.2611 L69.7649,101.0091 L69.0889,99.9021 C67.0489,96.5611 68.1079,92.1841 71.4489,90.1441 C74.7899,88.1051 79.1669,89.1631 81.2069,92.5041 L81.8819,93.6101 L98.6729,83.3581 C101.3169,81.7441 102.1549,78.2801 100.5409,75.6361 L75.8449,35.1891 L73.6319,36.5401 Z" id="Fill-19"></path>
                    <polygon id="Fill-21" points="33.579 85.3002 31.366 86.6512 36.03 94.2902 38.243 92.9382"></polygon>
                </g>
                <polygon id="Fill-23" fill="#D8666E" points="94.596 83 83 90.08 86.661 96.076 98.257 88.996"></polygon>
                <path d="M164.313693,33.818693 L167.226693,25.547693 C168.019693,23.296693 166.837693,20.828693 164.586693,20.035693 L147.232693,13.922693 C145.540693,18.020693 140.925693,20.127693 136.694693,18.637693 C132.464693,17.146693 130.188693,12.612693 131.438693,8.35969298 L114.084693,2.24669298 C111.832693,1.45369298 109.365693,2.63569298 108.572693,4.88669298 L105.658693,13.157693 C104.865693,15.409693 106.048693,17.876693 108.299693,18.669693 C106.048693,17.876693 103.580693,19.059693 102.787693,21.310693 L80.246693,85.303693 C79.453693,87.554693 80.635693,90.022693 82.886693,90.815693 L100.219693,96.920693 C101.759693,92.547693 106.553693,90.250693 110.926693,91.791693 C115.300693,93.331693 117.596693,98.125693 116.056693,102.498693 L133.388693,108.604693 C135.640693,109.397693 138.107693,108.214693 138.900693,105.963693 L161.441693,41.970693 C162.234693,39.719693 161.052693,37.251693 158.801693,36.458693 C161.052693,37.251693 163.520693,36.069693 164.313693,33.818693" id="Fill-25" fill="#F5BF3A"></path>
                <polygon id="Fill-27" fill="#C76815" points="117.234 23.025 111 20.829 111.997 18 118.231 20.196"></polygon>
                <polygon id="Fill-29" fill="#C76815" points="127.234 26.026 121 23.83 121.997 21 128.231 23.197"></polygon>
                <polygon id="Fill-31" fill="#C76815" points="136.234 30.025 130 27.829 130.997 25 137.231 27.196"></polygon>
                <polygon id="Fill-33" fill="#C76815" points="146.235 33.025 140 30.83 140.997 28 147.231 30.195"></polygon>
                <polygon id="Fill-35" fill="#C76815" points="156.234 36.026 150 33.83 150.997 31 157.231 33.197"></polygon>
                <polygon id="Fill-37" fill="#C76815" points="113.815 72.6 101 68.086 113.006 34 125.821 38.514"></polygon>
                <polygon id="Fill-39" fill="#C76815" points="121.721 86.913 114 84.193 125.34 52 133.061 54.72"></polygon>
                <g id="Group-43" transform="translate(89.000000, 0.000000)" fill="#D67927">
                    <path d="M13.3428,20.5193 L0.8418,56.0083 L3.2878,56.8693 L15.7888,21.3803 C16.3428,19.8073 18.0738,18.9783 19.6468,19.5323 L20.5088,17.0863 C18.9348,16.5323 18.1058,14.8013 18.6598,13.2283 L21.5738,4.9573 C22.1278,3.3843 23.8588,2.5553 25.4318,3.1093 L41.6998,8.8393 C40.9668,13.3993 43.5798,17.9273 48.0428,19.4993 C52.5048,21.0713 57.3798,19.1803 59.6668,15.1683 L75.9348,20.8983 C77.5078,21.4523 78.3368,23.1833 77.7828,24.7563 L74.8688,33.0273 C74.3148,34.6003 72.5838,35.4303 71.0108,34.8763 L70.1498,37.3213 C71.7228,37.8753 72.5518,39.6073 71.9978,41.1803 L66.6758,56.2873 L69.1218,57.1493 L74.4428,42.0413 C75.0198,40.4043 74.7898,38.6753 73.9628,37.2903 C75.4758,36.7293 76.7378,35.5263 77.3148,33.8893 L80.2288,25.6183 C81.2578,22.6963 79.7178,19.4813 76.7958,18.4523 L58.2818,11.9313 L57.8128,13.0673 C56.3728,16.5553 52.4598,18.3063 48.9038,17.0543 C45.3488,15.8013 43.3968,11.9853 44.4608,8.3643 L44.8078,7.1843 L26.2938,0.6633 C23.3718,-0.3657 20.1568,1.1743 19.1278,4.0963 L16.2148,12.3673 C15.6378,14.0043 15.8678,15.7333 16.6958,17.1183 C15.1828,17.6793 13.9198,18.8823 13.3428,20.5193" id="Fill-41"></path>
                </g>
                <path d="M153.718894,61 L137.973894,105.698 C137.419894,107.271 135.688894,108.101 134.115894,107.546 L117.923894,101.843 C118.896894,97.168 116.279894,92.363 111.653894,90.734 C107.027894,89.104 101.976894,91.208 99.804894,95.461 L83.613894,89.757 C82.039894,89.203 81.210894,87.472 81.764894,85.899 L85.755894,74.569 L83.310894,73.707 L79.319894,85.038 C78.289894,87.959 79.829894,91.174 82.751894,92.203 L101.307894,98.739 L101.737894,97.516 C103.038894,93.824 107.099894,91.879 110.791894,93.179 C114.483894,94.48 116.429894,98.541 115.128894,102.233 L114.698894,103.456 L133.254894,109.992 C136.175894,111.021 139.390894,109.481 140.419894,106.56 L156.164894,61.861 L153.718894,61 Z" id="Fill-44" fill="#C76815"></path>
                <polygon id="Fill-46" fill="#C76815" points="90.419 59.861 87.973 59 85 67.441 87.446 68.302"></polygon>
                <polygon id="Fill-48" fill="#A6A736" points="113.149 76.514 100.334 72 98 78.626 110.815 83.14"></polygon>
                <path d="M197.423637,91.1894644 L205.308637,87.3514644 C207.454637,86.3064644 208.346637,83.7204644 207.302637,81.5744644 L199.249637,65.0304644 C195.166637,66.7574644 190.402637,65.0144644 188.439637,60.9814644 C186.476637,56.9484644 188.042637,52.1224644 191.920637,49.9744644 L183.867637,33.4314644 C182.823637,31.2854644 180.236637,30.3924644 178.090637,31.4364644 L170.206637,35.2744644 C168.059637,36.3194644 167.167637,38.9064644 168.211637,41.0524644 C167.167637,38.9064644 164.580637,38.0134644 162.434637,39.0574644 L101.431637,68.7524644 C99.2846374,69.7974644 98.3926374,72.3834644 99.4366374,74.5294644 L107.479637,91.0524644 C111.648637,89.0234644 116.673637,90.7574644 118.702637,94.9264644 C120.731637,99.0954644 118.997637,104.120464 114.828637,106.149464 L122.871637,122.672464 C123.915637,124.818464 126.502637,125.711464 128.648637,124.667464 L189.651637,94.9724644 C191.797637,93.9274644 192.690637,91.3414644 191.646637,89.1954644 C192.690637,91.3414644 195.277637,92.2344644 197.423637,91.1894644" id="Fill-50" fill="#49C5E3"></path>
                <polygon id="Fill-52" fill="#0D929F" points="170.893 50.255 168 44.312 170.698 43 173.59 48.943"></polygon>
                <polygon id="Fill-54" fill="#0D929F" points="175.893 59.256 173 53.313 175.698 52 178.59 57.944"></polygon>
                <polygon id="Fill-56" fill="#0D929F" points="179.893 68.255 177 62.312 179.698 61 182.59 66.943"></polygon>
                <polygon id="Fill-58" fill="#0D929F" points="184.894 77.256 182 71.313 184.698 70 187.591 75.943"></polygon>
                <polygon id="Fill-60" fill="#0D929F" points="188.893 86.256 186 80.313 188.698 79 191.59 84.944"></polygon>
                <polygon id="Fill-62" fill="#0D929F" points="133.947 83.033 128 70.817 160.494 55 166.44 67.216"></polygon>
                <polygon id="Fill-64" fill="#18A9C0" points="129.583 98.299 126 90.939 156.69 76 160.272 83.36"></polygon>
                <g id="Group-68" transform="translate(128.000000, 29.000000)">
                    <mask id="mask-2" fill="white">
                        <use xlink:href="#path-1"></use>
                    </mask>
                    <g id="Clip-67"></g>
                    <path d="M34.468,8.4931 L0.637,24.9611 L1.772,27.2921 L35.603,10.8241 C37.103,10.0941 38.917,10.7211 39.647,12.2201 L41.978,11.0861 C41.248,9.5861 41.875,7.7721 43.374,7.0421 L51.259,3.2041 C52.759,2.4741 54.573,3.1001 55.303,4.6001 L62.852,20.1071 C59.126,22.8371 57.804,27.8951 59.875,32.1491 C61.945,36.4041 66.742,38.4831 71.189,37.2351 L78.738,52.7431 C79.468,54.2421 78.841,56.0571 77.342,56.7871 L69.457,60.6251 C67.957,61.3551 66.143,60.7281 65.413,59.2291 L63.082,60.3641 C63.812,61.8631 63.185,63.6781 61.686,64.4081 L47.284,71.4181 L48.419,73.7501 L62.82,66.7391 C64.381,65.9791 65.432,64.5881 65.817,63.0211 C67.287,63.6851 69.031,63.7161 70.592,62.9561 L78.477,59.1181 C81.262,57.7621 82.425,54.3931 81.069,51.6081 L72.478,33.9591 L71.345,34.4381 C67.87,35.9081 63.856,34.4041 62.206,31.0141 C60.556,27.6251 61.849,23.5381 65.15,21.7101 L66.226,21.1141 L57.635,3.4651 C56.279,0.6791 52.91,-0.4839 50.124,0.8721 L42.24,4.7101 C40.679,5.4701 39.628,6.8621 39.243,8.4291 C37.773,7.7641 36.029,7.7331 34.468,8.4931" id="Fill-66" fill="#0D929F" mask="url(#mask-2)"></path>
                </g>
                <g id="Group-71" transform="translate(98.000000, 61.000000)">
                    <mask id="mask-4" fill="white">
                        <use xlink:href="#path-3"></use>
                    </mask>
                    <g id="Clip-70"></g>
                    <path d="M73.2923,41.361 L30.6823,62.102 C29.1823,62.832 27.3683,62.206 26.6383,60.706 L19.1243,45.271 C23.1023,42.628 24.6153,37.37 22.4693,32.96 C20.3223,28.55 15.2503,26.498 10.7173,27.998 L3.2033,12.563 C2.4733,11.063 3.1003,9.249 4.5993,8.519 L15.4003,3.261 L14.2653,0.93 L3.4643,6.188 C0.6793,7.543 -0.4837,10.913 0.8723,13.698 L9.4823,31.387 L10.6483,30.819 C14.1673,29.106 18.4243,30.575 20.1373,34.095 C21.8513,37.615 20.3813,41.871 16.8623,43.585 L15.6963,44.152 L24.3063,61.841 C25.6623,64.626 29.0313,65.79 31.8173,64.434 L74.4273,43.692 L73.2923,41.361 Z" id="Fill-69" fill="#0D929F" mask="url(#mask-4)"></path>
                </g>
                <polygon id="Fill-72" fill="#0D929F" points="126.182 58.331 125.047 56 117 59.917 118.135 62.248"></polygon>
                <polygon id="Fill-74" fill="#0D929F" points="131.263 85.216 125.316 73 119 76.074 124.947 88.291"></polygon>
            </g>
        </g>
    </g>
</svg>