<?xml version="1.0" encoding="UTF-8"?>
<svg width="86px" height="149px" viewBox="0 0 86 149" version="1.1" xmlns="http://www.w3.org/2000/svg" xmlns:xlink="http://www.w3.org/1999/xlink">
    <!-- Generator: Sketch 48.1 (47250) - http://www.bohemiancoding.com/sketch -->
    <title>Group 5</title>
    <desc>Created with Sketch.</desc>
    <defs></defs>
    <g id="Desktop-HD" stroke="none" stroke-width="1" fill="none" fill-rule="evenodd" transform="translate(-41.000000, -3894.000000)">
        <g id="Group-5" transform="translate(41.000000, 3894.000000)" fill="#E4F400">
            <polygon id="Fill-1" points="26.0050667 148.214697 77.7644 79.1016515 80.3444 86.9431987 28.5850667 156.056244"></polygon>
            <polygon id="Fill-2" points="15.6022667 116.575241 67.3616 47.4621954 69.9416 55.3037427 18.1822667 124.416788"></polygon>
            <polygon id="Fill-3" points="5.1994 84.935785 56.9587333 15.8227394 59.5387333 23.6642866 7.7794 92.7773322"></polygon>
            <polygon id="Fill-4" points="31.2036 164.027562 33.7836 171.869109 85.5429333 102.756064 82.9629333 94.913816"></polygon>
            <polygon id="Fill-5" points="20.8057333 132.392238 72.5650667 63.2791922 75.1410667 71.126342 23.3817333 140.239388"></polygon>
            <polygon id="Fill-6" points="10.4028667 100.752852 62.1622 31.6398062 64.7382 39.486956 12.9788667 108.600002"></polygon>
            <polygon id="Fill-7" points="51.7596 7.00325733e-05 0.000266666667 69.113816 2.58026667 76.9553632 54.3396 7.84161726"></polygon>
        </g>
    </g>
</svg>